ISO-10303-21;
HEADER;
FILE_DESCRIPTION(('Open CASCADE Model'),'2;1');
FILE_NAME('Open CASCADE Shape Model','2026-09-27T21:38:45',('Author'),(
    'Open CASCADE'),'Open CASCADE STEP processor 8.0','build123d',
  'Unknown');
FILE_SCHEMA(('AUTOMOTIVE_DESIGN { 1 0 10303 214 1 1 1 1 }'));
ENDSEC;
DATA;
#1 = APPLICATION_PROTOCOL_DEFINITION('international standard',
  'automotive_design',2000,#2);
#2 = APPLICATION_CONTEXT(
  'core data for automotive mechanical design processes');
#3 = SHAPE_DEFINITION_REPRESENTATION(#4,#10);
#4 = PRODUCT_DEFINITION_SHAPE('','',#5);
#5 = PRODUCT_DEFINITION('design','',#6,#9);
#6 = PRODUCT_DEFINITION_FORMATION('','',#7);
#7 = PRODUCT('SOLID','SOLID','',(#8));
#8 = PRODUCT_CONTEXT('',#2,'mechanical');
#9 = PRODUCT_DEFINITION_CONTEXT('part definition',#2,'design');
#10 = ADVANCED_BREP_SHAPE_REPRESENTATION('',(#11,#15),#361);
#11 = AXIS2_PLACEMENT_3D('',#12,#13,#14);
#12 = CARTESIAN_POINT('',(0.,0.,0.));
#13 = DIRECTION('',(0.,0.,1.));
#14 = DIRECTION('',(1.,0.,-0.));
#15 = MANIFOLD_SOLID_BREP('',#16);
#16 = CLOSED_SHELL('',(#17,#306));
#17 = ADVANCED_FACE('',(#18),#33,.T.);
#18 = FACE_BOUND('',#19,.T.);
#19 = EDGE_LOOP('',(#20,#51,#52,#177,#201,#202));
#20 = ORIENTED_EDGE('',*,*,#21,.T.);
#21 = EDGE_CURVE('',#22,#24,#26,.T.);
#22 = VERTEX_POINT('',#23);
#23 = CARTESIAN_POINT('',(17.266216548719,-3.249285926637E-15,
    44.787026761025));
#24 = VERTEX_POINT('',#25);
#25 = CARTESIAN_POINT('',(2.939152317954E-15,-7.198846956777E-31,48.));
#26 = SEAM_CURVE('',#27,(#32,#44),.PCURVE_S1.);
#27 = CIRCLE('',#28,48.);
#28 = AXIS2_PLACEMENT_3D('',#29,#30,#31);
#29 = CARTESIAN_POINT('',(0.,0.,0.));
#30 = DIRECTION('',(-2.449293598295E-16,-1.,0.));
#31 = DIRECTION('',(1.,-2.449293598295E-16,0.));
#32 = PCURVE('',#33,#38);
#33 = SPHERICAL_SURFACE('',#34,48.);
#34 = AXIS2_PLACEMENT_3D('',#35,#36,#37);
#35 = CARTESIAN_POINT('',(0.,0.,0.));
#36 = DIRECTION('',(0.,0.,1.));
#37 = DIRECTION('',(1.,0.,-0.));
#38 = DEFINITIONAL_REPRESENTATION('',(#39),#43);
#39 = LINE('',#40,#41);
#40 = CARTESIAN_POINT('',(6.28318530718,-6.28318530718));
#41 = VECTOR('',#42,1.);
#42 = DIRECTION('',(0.,1.));
#43 = ( GEOMETRIC_REPRESENTATION_CONTEXT(2) 
PARAMETRIC_REPRESENTATION_CONTEXT() REPRESENTATION_CONTEXT('2D SPACE',''
  ) );
#44 = PCURVE('',#33,#45);
#45 = DEFINITIONAL_REPRESENTATION('',(#46),#50);
#46 = LINE('',#47,#48);
#47 = CARTESIAN_POINT('',(0.,-6.28318530718));
#48 = VECTOR('',#49,1.);
#49 = DIRECTION('',(0.,1.));
#50 = ( GEOMETRIC_REPRESENTATION_CONTEXT(2) 
PARAMETRIC_REPRESENTATION_CONTEXT() REPRESENTATION_CONTEXT('2D SPACE',''
  ) );
#51 = ORIENTED_EDGE('',*,*,#21,.F.);
#52 = ORIENTED_EDGE('',*,*,#53,.F.);
#53 = EDGE_CURVE('',#54,#22,#56,.T.);
#54 = VERTEX_POINT('',#55);
#55 = CARTESIAN_POINT('',(39.9045151586,-8.794069912783E-15,
    26.676387873119));
#56 = SURFACE_CURVE('',#57,(#62,#110),.PCURVE_S1.);
#57 = CIRCLE('',#58,14.495583852316);
#58 = AXIS2_PLACEMENT_3D('',#59,#60,#61);
#59 = CARTESIAN_POINT('',(28.585365853659,0.,35.731707317073));
#60 = DIRECTION('',(0.624695047554,0.,0.780868809443));
#61 = DIRECTION('',(-0.780868809443,0.,0.624695047554));
#62 = PCURVE('',#33,#63);
#63 = DEFINITIONAL_REPRESENTATION('',(#64),#109);
#64 = B_SPLINE_CURVE_WITH_KNOTS('',8,(#65,#66,#67,#68,#69,#70,#71,#72,
    #73,#74,#75,#76,#77,#78,#79,#80,#81,#82,#83,#84,#85,#86,#87,#88,#89,
    #90,#91,#92,#93,#94,#95,#96,#97,#98,#99,#100,#101,#102,#103,#104,
    #105,#106,#107,#108),.UNSPECIFIED.,.F.,.F.,(9,7,7,7,7,7,9),(
    3.14159265359,3.926990816987,4.516039439535,4.957825906446,
    5.620505606813,5.951845456996,6.28318530718),.UNSPECIFIED.);
#65 = CARTESIAN_POINT('',(0.,0.589274562077));
#66 = CARTESIAN_POINT('',(3.566264647539E-02,0.589274562077));
#67 = CARTESIAN_POINT('',(7.132529243387E-02,0.591774181818));
#68 = CARTESIAN_POINT('',(0.106771652511,0.596773402547));
#69 = CARTESIAN_POINT('',(0.14178542615,0.604244274958));
#70 = CARTESIAN_POINT('',(0.176149863223,0.614130689436));
#71 = CARTESIAN_POINT('',(0.209647209966,0.626350147852));
#72 = CARTESIAN_POINT('',(0.242054736492,0.640796143911));
#73 = CARTESIAN_POINT('',(0.296443530146,0.669747470334));
#74 = CARTESIAN_POINT('',(0.31900587562,0.683335080493));
#75 = CARTESIAN_POINT('',(0.340720589532,0.698048245156));
#76 = CARTESIAN_POINT('',(0.361482007348,0.71382537143));
#77 = CARTESIAN_POINT('',(0.381177173671,0.730598215006));
#78 = CARTESIAN_POINT('',(0.399681921094,0.748291886459));
#79 = CARTESIAN_POINT('',(0.416855148279,0.766824266685));
#80 = CARTESIAN_POINT('',(0.444288408999,0.800565255103));
#81 = CARTESIAN_POINT('',(0.455203412303,0.815446523146));
#82 = CARTESIAN_POINT('',(0.465206394574,0.830710436892));
#83 = CARTESIAN_POINT('',(0.474219716963,0.846316047605));
#84 = CARTESIAN_POINT('',(0.482155989838,0.862219377726));
#85 = CARTESIAN_POINT('',(0.488915745502,0.87837282914));
#86 = CARTESIAN_POINT('',(0.494384808157,0.894724278515));
#87 = CARTESIAN_POINT('',(0.504501190574,0.935953231554));
#88 = CARTESIAN_POINT('',(0.507370396999,0.961005905544));
#89 = CARTESIAN_POINT('',(0.506594274329,0.986178420196));
#90 = CARTESIAN_POINT('',(0.501639922376,1.011246604561));
#91 = CARTESIAN_POINT('',(0.491865590644,1.035945399544));
#92 = CARTESIAN_POINT('',(0.476514928946,1.059959605453));
#93 = CARTESIAN_POINT('',(0.454714152208,1.082890629505));
#94 = CARTESIAN_POINT('',(0.411375396909,1.114953013552));
#95 = CARTESIAN_POINT('',(0.395156232214,1.125251455075));
#96 = CARTESIAN_POINT('',(0.377083746648,1.135101764241));
#97 = CARTESIAN_POINT('',(0.35709258161,1.144440273288));
#98 = CARTESIAN_POINT('',(0.335141112691,1.153199000338));
#99 = CARTESIAN_POINT('',(0.311229273999,1.16130695568));
#100 = CARTESIAN_POINT('',(0.285417183012,1.168692951694));
#101 = CARTESIAN_POINT('',(0.230255270999,1.181887758142));
#102 = CARTESIAN_POINT('',(0.200905426724,1.187696566866));
#103 = CARTESIAN_POINT('',(0.169917877774,1.192650118586));
#104 = CARTESIAN_POINT('',(0.137494549935,1.196686271671));
#105 = CARTESIAN_POINT('',(0.103916440976,1.199751696889));
#106 = CARTESIAN_POINT('',(6.954280516979E-02,1.201808033628));
#107 = CARTESIAN_POINT('',(3.477140293296E-02,1.202836207066));
#108 = CARTESIAN_POINT('',(2.056266387766E-16,1.202836207066));
#109 = ( GEOMETRIC_REPRESENTATION_CONTEXT(2) 
PARAMETRIC_REPRESENTATION_CONTEXT() REPRESENTATION_CONTEXT('2D SPACE',''
  ) );
#110 = PCURVE('',#111,#116);
#111 = SPHERICAL_SURFACE('',#112,36.);
#112 = AXIS2_PLACEMENT_3D('',#113,#114,#115);
#113 = CARTESIAN_POINT('',(8.,0.,10.));
#114 = DIRECTION('',(0.,0.,1.));
#115 = DIRECTION('',(1.,0.,-0.));
#116 = DEFINITIONAL_REPRESENTATION('',(#117),#176);
#117 = B_SPLINE_CURVE_WITH_KNOTS('',8,(#118,#119,#120,#121,#122,#123,
    #124,#125,#126,#127,#128,#129,#130,#131,#132,#133,#134,#135,#136,
    #137,#138,#139,#140,#141,#142,#143,#144,#145,#146,#147,#148,#149,
    #150,#151,#152,#153,#154,#155,#156,#157,#158,#159,#160,#161,#162,
    #163,#164,#165,#166,#167,#168,#169,#170,#171,#172,#173,#174,#175),
  .UNSPECIFIED.,.F.,.F.,(9,7,7,7,7,7,7,7,9),(3.14159265359,
    3.926990816987,4.516039439535,4.957825906446,5.28916575663,
    5.537670644267,5.910427975723,6.096806641451,6.28318530718),
  .UNSPECIFIED.);
#118 = CARTESIAN_POINT('',(-8.881784197001E-16,0.481639741506));
#119 = CARTESIAN_POINT('',(4.460499116813E-02,0.481639741506));
#120 = CARTESIAN_POINT('',(8.920997930733E-02,0.484766136956));
#121 = CARTESIAN_POINT('',(0.133586674156,0.491018900186));
#122 = CARTESIAN_POINT('',(0.177506701637,0.500362443784));
#123 = CARTESIAN_POINT('',(0.220746126631,0.512725262373));
#124 = CARTESIAN_POINT('',(0.263089366166,0.528003760303));
#125 = CARTESIAN_POINT('',(0.304327816053,0.546067839873));
#126 = CARTESIAN_POINT('',(0.374189037383,0.582289313326));
#127 = CARTESIAN_POINT('',(0.403388331024,0.599294372306));
#128 = CARTESIAN_POINT('',(0.431756528172,0.617717001503));
#129 = CARTESIAN_POINT('',(0.459202509108,0.637486359227));
#130 = CARTESIAN_POINT('',(0.485630921704,0.658525851764));
#131 = CARTESIAN_POINT('',(0.510938143486,0.680754084704));
#132 = CARTESIAN_POINT('',(0.535005142575,0.704085165243));
#133 = CARTESIAN_POINT('',(0.574695234153,0.74668485418));
#134 = CARTESIAN_POINT('',(0.590925115168,0.765510888324));
#135 = CARTESIAN_POINT('',(0.606312908444,0.784867445894));
#136 = CARTESIAN_POINT('',(0.620787933461,0.804714340039));
#137 = CARTESIAN_POINT('',(0.63426756465,0.8250094393));
#138 = CARTESIAN_POINT('',(0.646653290587,0.845708267179));
#139 = CARTESIAN_POINT('',(0.657824509977,0.866763145423));
#140 = CARTESIAN_POINT('',(0.674981576529,0.904140381835));
#141 = CARTESIAN_POINT('',(0.681565555975,0.920329935335));
#142 = CARTESIAN_POINT('',(0.687316110522,0.936668094149));
#143 = CARTESIAN_POINT('',(0.692158579547,0.953131135039));
#144 = CARTESIAN_POINT('',(0.696005837657,0.969693450443));
#145 = CARTESIAN_POINT('',(0.698754987492,0.986326945768));
#146 = CARTESIAN_POINT('',(0.70028292532,1.003000127643));
#147 = CARTESIAN_POINT('',(0.700559169987,1.032184449775));
#148 = CARTESIAN_POINT('',(0.699906897168,1.044694022735));
#149 = CARTESIAN_POINT('',(0.698421084252,1.057190361749));
#150 = CARTESIAN_POINT('',(0.696030827291,1.069656728062));
#151 = CARTESIAN_POINT('',(0.692655584328,1.082074589126));
#152 = CARTESIAN_POINT('',(0.688203667201,1.094423180924));
#153 = CARTESIAN_POINT('',(0.682570835907,1.106678927919));
#154 = CARTESIAN_POINT('',(0.665241234976,1.13701840971));
#155 = CARTESIAN_POINT('',(0.651920710229,1.154952203348));
#156 = CARTESIAN_POINT('',(0.635279380506,1.172524556159));
#157 = CARTESIAN_POINT('',(0.61484912336,1.18962615722));
#158 = CARTESIAN_POINT('',(0.590090287589,1.206123514423));
#159 = CARTESIAN_POINT('',(0.560391456981,1.221853387248));
#160 = CARTESIAN_POINT('',(0.525128737561,1.236609094994));
#161 = CARTESIAN_POINT('',(0.463333337275,1.256923033214));
#162 = CARTESIAN_POINT('',(0.441251315313,1.26339107731));
#163 = CARTESIAN_POINT('',(0.417639309112,1.269525985094));
#164 = CARTESIAN_POINT('',(0.392466854198,1.27529590937));
#165 = CARTESIAN_POINT('',(0.36572644237,1.280667319834));
#166 = CARTESIAN_POINT('',(0.337445000146,1.285605866822));
#167 = CARTESIAN_POINT('',(0.30769424626,1.290077831031));
#168 = CARTESIAN_POINT('',(0.245494394798,1.298026524754));
#169 = CARTESIAN_POINT('',(0.213045251715,1.301503252558));
#170 = CARTESIAN_POINT('',(0.179367199697,1.304451320494));
#171 = CARTESIAN_POINT('',(0.144627787921,1.306842330829));
#172 = CARTESIAN_POINT('',(0.109047380919,1.308652475221));
#173 = CARTESIAN_POINT('',(7.289022046094E-02,1.309864840856));
#174 = CARTESIAN_POINT('',(3.64451278893E-02,1.310471027637));
#175 = CARTESIAN_POINT('',(3.831546623841E-16,1.310471027637));
#176 = ( GEOMETRIC_REPRESENTATION_CONTEXT(2) 
PARAMETRIC_REPRESENTATION_CONTEXT() REPRESENTATION_CONTEXT('2D SPACE',''
  ) );
#177 = ORIENTED_EDGE('',*,*,#178,.F.);
#178 = EDGE_CURVE('',#179,#54,#181,.T.);
#179 = VERTEX_POINT('',#180);
#180 = CARTESIAN_POINT('',(2.939152317954E-15,-7.198846956777E-31,-48.)
  );
#181 = SEAM_CURVE('',#182,(#187,#194),.PCURVE_S1.);
#182 = CIRCLE('',#183,48.);
#183 = AXIS2_PLACEMENT_3D('',#184,#185,#186);
#184 = CARTESIAN_POINT('',(0.,0.,0.));
#185 = DIRECTION('',(-2.449293598295E-16,-1.,0.));
#186 = DIRECTION('',(1.,-2.449293598295E-16,0.));
#187 = PCURVE('',#33,#188);
#188 = DEFINITIONAL_REPRESENTATION('',(#189),#193);
#189 = LINE('',#190,#191);
#190 = CARTESIAN_POINT('',(6.28318530718,-6.28318530718));
#191 = VECTOR('',#192,1.);
#192 = DIRECTION('',(0.,1.));
#193 = ( GEOMETRIC_REPRESENTATION_CONTEXT(2) 
PARAMETRIC_REPRESENTATION_CONTEXT() REPRESENTATION_CONTEXT('2D SPACE',''
  ) );
#194 = PCURVE('',#33,#195);
#195 = DEFINITIONAL_REPRESENTATION('',(#196),#200);
#196 = LINE('',#197,#198);
#197 = CARTESIAN_POINT('',(0.,-6.28318530718));
#198 = VECTOR('',#199,1.);
#199 = DIRECTION('',(0.,1.));
#200 = ( GEOMETRIC_REPRESENTATION_CONTEXT(2) 
PARAMETRIC_REPRESENTATION_CONTEXT() REPRESENTATION_CONTEXT('2D SPACE',''
  ) );
#201 = ORIENTED_EDGE('',*,*,#178,.T.);
#202 = ORIENTED_EDGE('',*,*,#203,.F.);
#203 = EDGE_CURVE('',#22,#54,#204,.T.);
#204 = SURFACE_CURVE('',#205,(#210,#251),.PCURVE_S1.);
#205 = CIRCLE('',#206,14.495583852316);
#206 = AXIS2_PLACEMENT_3D('',#207,#208,#209);
#207 = CARTESIAN_POINT('',(28.585365853659,0.,35.731707317073));
#208 = DIRECTION('',(0.624695047554,0.,0.780868809443));
#209 = DIRECTION('',(-0.780868809443,0.,0.624695047554));
#210 = PCURVE('',#33,#211);
#211 = DEFINITIONAL_REPRESENTATION('',(#212),#250);
#212 = B_SPLINE_CURVE_WITH_KNOTS('',8,(#213,#214,#215,#216,#217,#218,
    #219,#220,#221,#222,#223,#224,#225,#226,#227,#228,#229,#230,#231,
    #232,#233,#234,#235,#236,#237,#238,#239,#240,#241,#242,#243,#244,
    #245,#246,#247,#248,#249),.UNSPECIFIED.,.F.,.F.,(9,7,7,7,7,9),(0.,
    0.392699081699,0.736310778185,1.337631247036,2.239611950313,
    3.14159265359),.UNSPECIFIED.);
#213 = CARTESIAN_POINT('',(6.28318530718,1.202836207066));
#214 = CARTESIAN_POINT('',(6.241974755555,1.202836207066));
#215 = CARTESIAN_POINT('',(6.200764218104,1.201391965909));
#216 = CARTESIAN_POINT('',(6.160215781079,1.198503525713));
#217 = CARTESIAN_POINT('',(6.120992034246,1.194208424252));
#218 = CARTESIAN_POINT('',(6.083664223798,1.188582642174));
#219 = CARTESIAN_POINT('',(6.048622259397,1.181727697395));
#220 = CARTESIAN_POINT('',(6.016104904871,1.173756066351));
#221 = CARTESIAN_POINT('',(5.960085529765,1.156931976767));
#222 = CARTESIAN_POINT('',(5.935964663431,1.148314176807));
#223 = CARTESIAN_POINT('',(5.913943193105,1.139007140335));
#224 = CARTESIAN_POINT('',(5.89402674929,1.129089887433));
#225 = CARTESIAN_POINT('',(5.876168252679,1.118638535522));
#226 = CARTESIAN_POINT('',(5.86028869602,1.107724187385));
#227 = CARTESIAN_POINT('',(5.846293832667,1.096412389069));
#228 = CARTESIAN_POINT('',(5.812709762676,1.064377224988));
#229 = CARTESIAN_POINT('',(5.796796991477,1.042958062614));
#230 = CARTESIAN_POINT('',(5.785796232934,1.020827863788));
#231 = CARTESIAN_POINT('',(5.779091964761,0.998257249791));
#232 = CARTESIAN_POINT('',(5.776150917981,0.975467795133));
#233 = CARTESIAN_POINT('',(5.77651599373,0.952648554416));
#234 = CARTESIAN_POINT('',(5.779802356373,0.929962677803));
#235 = CARTESIAN_POINT('',(5.794505854508,0.873941384822));
#236 = CARTESIAN_POINT('',(5.809166840046,0.840952657487));
#237 = CARTESIAN_POINT('',(5.828565481559,0.809073824241));
#238 = CARTESIAN_POINT('',(5.851901226077,0.778692675891));
#239 = CARTESIAN_POINT('',(5.878573768012,0.750143975869));
#240 = CARTESIAN_POINT('',(5.908090413498,0.723722348929));
#241 = CARTESIAN_POINT('',(5.940029525087,0.699685984087));
#242 = CARTESIAN_POINT('',(6.007986981023,0.656824093427));
#243 = CARTESIAN_POINT('',(6.044005351563,0.637998575485));
#244 = CARTESIAN_POINT('',(6.081680751431,0.621998603391));
#245 = CARTESIAN_POINT('',(6.12067047179,0.609006492667));
#246 = CARTESIAN_POINT('',(6.160643951388,0.599164831886));
#247 = CARTESIAN_POINT('',(6.201272666774,0.592571336375));
#248 = CARTESIAN_POINT('',(6.242228986618,0.589274562077));
#249 = CARTESIAN_POINT('',(6.28318530718,0.589274562077));
#250 = ( GEOMETRIC_REPRESENTATION_CONTEXT(2) 
PARAMETRIC_REPRESENTATION_CONTEXT() REPRESENTATION_CONTEXT('2D SPACE',''
  ) );
#251 = PCURVE('',#111,#252);
#252 = DEFINITIONAL_REPRESENTATION('',(#253),#305);
#253 = B_SPLINE_CURVE_WITH_KNOTS('',8,(#254,#255,#256,#257,#258,#259,
    #260,#261,#262,#263,#264,#265,#266,#267,#268,#269,#270,#271,#272,
    #273,#274,#275,#276,#277,#278,#279,#280,#281,#282,#283,#284,#285,
    #286,#287,#288,#289,#290,#291,#292,#293,#294,#295,#296,#297,#298,
    #299,#300,#301,#302,#303,#304),.UNSPECIFIED.,.F.,.F.,(9,7,7,7,7,7,7,
    9),(0.,0.196349540849,0.380427235396,0.72557291267,1.027575380285,
    1.556079698611,2.3488361761,3.14159265359),.UNSPECIFIED.);
#254 = CARTESIAN_POINT('',(6.28318530718,1.310471027637));
#255 = CARTESIAN_POINT('',(6.244790439938,1.310471027637));
#256 = CARTESIAN_POINT('',(6.206395572639,1.309798247132));
#257 = CARTESIAN_POINT('',(6.168337604548,1.308452690541));
#258 = CARTESIAN_POINT('',(6.130953408594,1.306444719346));
#259 = CARTESIAN_POINT('',(6.094550387936,1.303795147915));
#260 = CARTESIAN_POINT('',(6.059375936467,1.300533119634));
#261 = CARTESIAN_POINT('',(6.0256139485,1.296692919586));
#262 = CARTESIAN_POINT('',(5.963179760661,1.288204137929));
#263 = CARTESIAN_POINT('',(5.934321322999,1.283621081549));
#264 = CARTESIAN_POINT('',(5.906917964337,1.278592973951));
#265 = CARTESIAN_POINT('',(5.881027752273,1.273152504948));
#266 = CARTESIAN_POINT('',(5.856668034848,1.267332657881));
#267 = CARTESIAN_POINT('',(5.833825370258,1.261165443139));
#268 = CARTESIAN_POINT('',(5.812466020154,1.254681172731));
#269 = CARTESIAN_POINT('',(5.755185264402,1.23520892595));
#270 = CARTESIAN_POINT('',(5.722875321247,1.221494721702));
#271 = CARTESIAN_POINT('',(5.695298710657,1.206952597745));
#272 = CARTESIAN_POINT('',(5.67197090576,1.191745225116));
#273 = CARTESIAN_POINT('',(5.652409201521,1.176004309225));
#274 = CARTESIAN_POINT('',(5.636179023757,1.159838919795));
#275 = CARTESIAN_POINT('',(5.622897565964,1.143339673945));
#276 = CARTESIAN_POINT('',(5.602903483618,1.111921240227));
#277 = CARTESIAN_POINT('',(5.595577273718,1.097062344076));
#278 = CARTESIAN_POINT('',(5.59003367426,1.08205779623));
#279 = CARTESIAN_POINT('',(5.586081294175,1.066950627408));
#280 = CARTESIAN_POINT('',(5.583557123423,1.051777696351));
#281 = CARTESIAN_POINT('',(5.582322141316,1.03657118352));
#282 = CARTESIAN_POINT('',(5.582256641225,1.021359634604));
#283 = CARTESIAN_POINT('',(5.585008729013,0.979584608418));
#284 = CARTESIAN_POINT('',(5.590025452876,0.95306368925));
#285 = CARTESIAN_POINT('',(5.597754099788,0.926743464755));
#286 = CARTESIAN_POINT('',(5.607794144838,0.900734678436));
#287 = CARTESIAN_POINT('',(5.619842658246,0.875133118887));
#288 = CARTESIAN_POINT('',(5.633662219493,0.850025149536));
#289 = CARTESIAN_POINT('',(5.649062734732,0.825490016099));
#290 = CARTESIAN_POINT('',(5.691125384005,0.765769944903));
#291 = CARTESIAN_POINT('',(5.719568204033,0.731393875255));
#292 = CARTESIAN_POINT('',(5.750688605786,0.698724268445));
#293 = CARTESIAN_POINT('',(5.784130025092,0.667985666302));
#294 = CARTESIAN_POINT('',(5.819610128467,0.6393888328));
#295 = CARTESIAN_POINT('',(5.856888537399,0.613130347387));
#296 = CARTESIAN_POINT('',(5.895740854859,0.58938960424));
#297 = CARTESIAN_POINT('',(5.976155022384,0.54725765447));
#298 = CARTESIAN_POINT('',(6.01771686747,0.528866452828));
#299 = CARTESIAN_POINT('',(6.06041425168,0.513307042344));
#300 = CARTESIAN_POINT('',(6.104032918204,0.500714226456));
#301 = CARTESIAN_POINT('',(6.148351410992,0.491195467424));
#302 = CARTESIAN_POINT('',(6.193139528971,0.484824993315));
#303 = CARTESIAN_POINT('',(6.238162416467,0.481639741506));
#304 = CARTESIAN_POINT('',(6.28318530718,0.481639741506));
#305 = ( GEOMETRIC_REPRESENTATION_CONTEXT(2) 
PARAMETRIC_REPRESENTATION_CONTEXT() REPRESENTATION_CONTEXT('2D SPACE',''
  ) );
#306 = ADVANCED_FACE('',(#307),#111,.F.);
#307 = FACE_BOUND('',#308,.F.);
#308 = EDGE_LOOP('',(#309,#333,#334,#335,#359,#360));
#309 = ORIENTED_EDGE('',*,*,#310,.T.);
#310 = EDGE_CURVE('',#22,#311,#313,.T.);
#311 = VERTEX_POINT('',#312);
#312 = CARTESIAN_POINT('',(8.,-5.399135217583E-31,46.));
#313 = SEAM_CURVE('',#314,(#319,#326),.PCURVE_S1.);
#314 = CIRCLE('',#315,36.);
#315 = AXIS2_PLACEMENT_3D('',#316,#317,#318);
#316 = CARTESIAN_POINT('',(8.,0.,10.));
#317 = DIRECTION('',(-2.449293598295E-16,-1.,0.));
#318 = DIRECTION('',(1.,-2.449293598295E-16,0.));
#319 = PCURVE('',#111,#320);
#320 = DEFINITIONAL_REPRESENTATION('',(#321),#325);
#321 = LINE('',#322,#323);
#322 = CARTESIAN_POINT('',(6.28318530718,-6.28318530718));
#323 = VECTOR('',#324,1.);
#324 = DIRECTION('',(0.,1.));
#325 = ( GEOMETRIC_REPRESENTATION_CONTEXT(2) 
PARAMETRIC_REPRESENTATION_CONTEXT() REPRESENTATION_CONTEXT('2D SPACE',''
  ) );
#326 = PCURVE('',#111,#327);
#327 = DEFINITIONAL_REPRESENTATION('',(#328),#332);
#328 = LINE('',#329,#330);
#329 = CARTESIAN_POINT('',(0.,-6.28318530718));
#330 = VECTOR('',#331,1.);
#331 = DIRECTION('',(0.,1.));
#332 = ( GEOMETRIC_REPRESENTATION_CONTEXT(2) 
PARAMETRIC_REPRESENTATION_CONTEXT() REPRESENTATION_CONTEXT('2D SPACE',''
  ) );
#333 = ORIENTED_EDGE('',*,*,#310,.F.);
#334 = ORIENTED_EDGE('',*,*,#53,.F.);
#335 = ORIENTED_EDGE('',*,*,#336,.F.);
#336 = EDGE_CURVE('',#337,#54,#339,.T.);
#337 = VERTEX_POINT('',#338);
#338 = CARTESIAN_POINT('',(8.,-5.399135217583E-31,-26.));
#339 = SEAM_CURVE('',#340,(#345,#352),.PCURVE_S1.);
#340 = CIRCLE('',#341,36.);
#341 = AXIS2_PLACEMENT_3D('',#342,#343,#344);
#342 = CARTESIAN_POINT('',(8.,0.,10.));
#343 = DIRECTION('',(-2.449293598295E-16,-1.,0.));
#344 = DIRECTION('',(1.,-2.449293598295E-16,0.));
#345 = PCURVE('',#111,#346);
#346 = DEFINITIONAL_REPRESENTATION('',(#347),#351);
#347 = LINE('',#348,#349);
#348 = CARTESIAN_POINT('',(6.28318530718,-6.28318530718));
#349 = VECTOR('',#350,1.);
#350 = DIRECTION('',(0.,1.));
#351 = ( GEOMETRIC_REPRESENTATION_CONTEXT(2) 
PARAMETRIC_REPRESENTATION_CONTEXT() REPRESENTATION_CONTEXT('2D SPACE',''
  ) );
#352 = PCURVE('',#111,#353);
#353 = DEFINITIONAL_REPRESENTATION('',(#354),#358);
#354 = LINE('',#355,#356);
#355 = CARTESIAN_POINT('',(0.,-6.28318530718));
#356 = VECTOR('',#357,1.);
#357 = DIRECTION('',(0.,1.));
#358 = ( GEOMETRIC_REPRESENTATION_CONTEXT(2) 
PARAMETRIC_REPRESENTATION_CONTEXT() REPRESENTATION_CONTEXT('2D SPACE',''
  ) );
#359 = ORIENTED_EDGE('',*,*,#336,.T.);
#360 = ORIENTED_EDGE('',*,*,#203,.F.);
#361 = ( GEOMETRIC_REPRESENTATION_CONTEXT(3) 
GLOBAL_UNCERTAINTY_ASSIGNED_CONTEXT((#365)) GLOBAL_UNIT_ASSIGNED_CONTEXT
((#362,#363,#364)) REPRESENTATION_CONTEXT('Context #1',
  '3D Context with UNIT and UNCERTAINTY') );
#362 = ( LENGTH_UNIT() NAMED_UNIT(*) SI_UNIT(.MILLI.,.METRE.) );
#363 = ( NAMED_UNIT(*) PLANE_ANGLE_UNIT() SI_UNIT($,.RADIAN.) );
#364 = ( NAMED_UNIT(*) SI_UNIT($,.STERADIAN.) SOLID_ANGLE_UNIT() );
#365 = UNCERTAINTY_MEASURE_WITH_UNIT(LENGTH_MEASURE(1.E-07),#362,
  'distance_accuracy_value','confusion accuracy');
#366 = PRODUCT_RELATED_PRODUCT_CATEGORY('part',$,(#7));
ENDSEC;
END-ISO-10303-21;
