ISO-10303-21;
HEADER;
FILE_DESCRIPTION(('Open CASCADE Model'),'2;1');
FILE_NAME('Open CASCADE Shape Model','2026-09-27T21:38:44',('Author'),(
    'Open CASCADE'),'Open CASCADE STEP processor 8.0','build123d',
  'Unknown');
FILE_SCHEMA(('AUTOMOTIVE_DESIGN { 1 0 10303 214 1 1 1 1 }'));
ENDSEC;
DATA;
#1 = APPLICATION_PROTOCOL_DEFINITION('international standard',
  'automotive_design',2000,#2);
#2 = APPLICATION_CONTEXT(
  'core data for automotive mechanical design processes');
#3 = SHAPE_DEFINITION_REPRESENTATION(#4,#10);
#4 = PRODUCT_DEFINITION_SHAPE('','',#5);
#5 = PRODUCT_DEFINITION('design','',#6,#9);
#6 = PRODUCT_DEFINITION_FORMATION('','',#7);
#7 = PRODUCT('SOLID','SOLID','',(#8));
#8 = PRODUCT_CONTEXT('',#2,'mechanical');
#9 = PRODUCT_DEFINITION_CONTEXT('part definition',#2,'design');
#10 = ADVANCED_BREP_SHAPE_REPRESENTATION('',(#11,#15),#1586);
#11 = AXIS2_PLACEMENT_3D('',#12,#13,#14);
#12 = CARTESIAN_POINT('',(0.,0.,0.));
#13 = DIRECTION('',(0.,0.,1.));
#14 = DIRECTION('',(1.,0.,-0.));
#15 = MANIFOLD_SOLID_BREP('',#16);
#16 = CLOSED_SHELL('',(#17,#105,#140,#144,#199,#234,#289,#324,#379,#414,
    #609,#635,#854,#861,#912,#1108,#1113,#1164,#1441,#1446,#1497,#1577,
    #1582));
#17 = ADVANCED_FACE('',(#18),#31,.T.);
#18 = FACE_BOUND('',#19,.T.);
#19 = EDGE_LOOP('',(#20,#54,#77,#104));
#20 = ORIENTED_EDGE('',*,*,#21,.F.);
#21 = EDGE_CURVE('',#22,#22,#24,.T.);
#22 = VERTEX_POINT('',#23);
#23 = CARTESIAN_POINT('',(183.,-6.879793573877E-15,-20.08888888888));
#24 = SURFACE_CURVE('',#25,(#30,#42),.PCURVE_S1.);
#25 = CIRCLE('',#26,28.088888888889);
#26 = AXIS2_PLACEMENT_3D('',#27,#28,#29);
#27 = CARTESIAN_POINT('',(183.,0.,8.));
#28 = DIRECTION('',(1.,0.,2.22044604925E-16));
#29 = DIRECTION('',(2.22044604925E-16,0.,-1.));
#30 = PCURVE('',#31,#36);
#31 = CONICAL_SURFACE('',#32,34.,0.154318775926);
#32 = AXIS2_PLACEMENT_3D('',#33,#34,#35);
#33 = CARTESIAN_POINT('',(145.,0.,8.));
#34 = DIRECTION('',(-1.,-0.,-2.22044604925E-16));
#35 = DIRECTION('',(2.22044604925E-16,0.,-1.));
#36 = DEFINITIONAL_REPRESENTATION('',(#37),#41);
#37 = LINE('',#38,#39);
#38 = CARTESIAN_POINT('',(-0.,-38.));
#39 = VECTOR('',#40,1.);
#40 = DIRECTION('',(-1.,-0.));
#41 = ( GEOMETRIC_REPRESENTATION_CONTEXT(2) 
PARAMETRIC_REPRESENTATION_CONTEXT() REPRESENTATION_CONTEXT('2D SPACE',''
  ) );
#42 = PCURVE('',#43,#48);
#43 = PLANE('',#44);
#44 = AXIS2_PLACEMENT_3D('',#45,#46,#47);
#45 = CARTESIAN_POINT('',(183.,0.,6.5));
#46 = DIRECTION('',(1.,0.,2.22044604925E-16));
#47 = DIRECTION('',(2.22044604925E-16,0.,-1.));
#48 = DEFINITIONAL_REPRESENTATION('',(#49),#53);
#49 = CIRCLE('',#50,28.088888888889);
#50 = AXIS2_PLACEMENT_2D('',#51,#52);
#51 = CARTESIAN_POINT('',(-1.5,0.));
#52 = DIRECTION('',(1.,0.));
#53 = ( GEOMETRIC_REPRESENTATION_CONTEXT(2) 
PARAMETRIC_REPRESENTATION_CONTEXT() REPRESENTATION_CONTEXT('2D SPACE',''
  ) );
#54 = ORIENTED_EDGE('',*,*,#55,.F.);
#55 = EDGE_CURVE('',#56,#22,#58,.T.);
#56 = VERTEX_POINT('',#57);
#57 = CARTESIAN_POINT('',(145.,-8.327598234202E-15,-26.));
#58 = SEAM_CURVE('',#59,(#63,#70),.PCURVE_S1.);
#59 = LINE('',#60,#61);
#60 = CARTESIAN_POINT('',(145.,-8.327598234202E-15,-26.));
#61 = VECTOR('',#62,1.);
#62 = DIRECTION('',(0.988116468955,3.764735864992E-17,0.153707006282));
#63 = PCURVE('',#31,#64);
#64 = DEFINITIONAL_REPRESENTATION('',(#65),#69);
#65 = LINE('',#66,#67);
#66 = CARTESIAN_POINT('',(-6.28318530718,0.));
#67 = VECTOR('',#68,1.);
#68 = DIRECTION('',(-0.,-1.));
#69 = ( GEOMETRIC_REPRESENTATION_CONTEXT(2) 
PARAMETRIC_REPRESENTATION_CONTEXT() REPRESENTATION_CONTEXT('2D SPACE',''
  ) );
#70 = PCURVE('',#31,#71);
#71 = DEFINITIONAL_REPRESENTATION('',(#72),#76);
#72 = LINE('',#73,#74);
#73 = CARTESIAN_POINT('',(0.,-0.));
#74 = VECTOR('',#75,1.);
#75 = DIRECTION('',(-0.,-1.));
#76 = ( GEOMETRIC_REPRESENTATION_CONTEXT(2) 
PARAMETRIC_REPRESENTATION_CONTEXT() REPRESENTATION_CONTEXT('2D SPACE',''
  ) );
#77 = ORIENTED_EDGE('',*,*,#78,.T.);
#78 = EDGE_CURVE('',#56,#56,#79,.T.);
#79 = SURFACE_CURVE('',#80,(#85,#92),.PCURVE_S1.);
#80 = CIRCLE('',#81,34.);
#81 = AXIS2_PLACEMENT_3D('',#82,#83,#84);
#82 = CARTESIAN_POINT('',(145.,0.,8.));
#83 = DIRECTION('',(1.,-0.,2.22044604925E-16));
#84 = DIRECTION('',(2.22044604925E-16,0.,-1.));
#85 = PCURVE('',#31,#86);
#86 = DEFINITIONAL_REPRESENTATION('',(#87),#91);
#87 = LINE('',#88,#89);
#88 = CARTESIAN_POINT('',(-0.,-0.));
#89 = VECTOR('',#90,1.);
#90 = DIRECTION('',(-1.,-0.));
#91 = ( GEOMETRIC_REPRESENTATION_CONTEXT(2) 
PARAMETRIC_REPRESENTATION_CONTEXT() REPRESENTATION_CONTEXT('2D SPACE',''
  ) );
#92 = PCURVE('',#93,#98);
#93 = PLANE('',#94);
#94 = AXIS2_PLACEMENT_3D('',#95,#96,#97);
#95 = CARTESIAN_POINT('',(145.,0.,8.));
#96 = DIRECTION('',(1.,0.,2.22044604925E-16));
#97 = DIRECTION('',(2.22044604925E-16,0.,-1.));
#98 = DEFINITIONAL_REPRESENTATION('',(#99),#103);
#99 = CIRCLE('',#100,34.);
#100 = AXIS2_PLACEMENT_2D('',#101,#102);
#101 = CARTESIAN_POINT('',(0.,0.));
#102 = DIRECTION('',(1.,0.));
#103 = ( GEOMETRIC_REPRESENTATION_CONTEXT(2) 
PARAMETRIC_REPRESENTATION_CONTEXT() REPRESENTATION_CONTEXT('2D SPACE',''
  ) );
#104 = ORIENTED_EDGE('',*,*,#55,.T.);
#105 = ADVANCED_FACE('',(#106,#137),#43,.F.);
#106 = FACE_BOUND('',#107,.F.);
#107 = EDGE_LOOP('',(#108));
#108 = ORIENTED_EDGE('',*,*,#109,.T.);
#109 = EDGE_CURVE('',#110,#110,#112,.T.);
#110 = VERTEX_POINT('',#111);
#111 = CARTESIAN_POINT('',(183.,-7.543824282748E-15,-24.3));
#112 = SURFACE_CURVE('',#113,(#118,#125),.PCURVE_S1.);
#113 = CIRCLE('',#114,30.8);
#114 = AXIS2_PLACEMENT_3D('',#115,#116,#117);
#115 = CARTESIAN_POINT('',(183.,0.,6.5));
#116 = DIRECTION('',(1.,-0.,2.22044604925E-16));
#117 = DIRECTION('',(2.22044604925E-16,0.,-1.));
#118 = PCURVE('',#43,#119);
#119 = DEFINITIONAL_REPRESENTATION('',(#120),#124);
#120 = CIRCLE('',#121,30.8);
#121 = AXIS2_PLACEMENT_2D('',#122,#123);
#122 = CARTESIAN_POINT('',(0.,0.));
#123 = DIRECTION('',(1.,0.));
#124 = ( GEOMETRIC_REPRESENTATION_CONTEXT(2) 
PARAMETRIC_REPRESENTATION_CONTEXT() REPRESENTATION_CONTEXT('2D SPACE',''
  ) );
#125 = PCURVE('',#126,#131);
#126 = CONICAL_SURFACE('',#127,30.8,0.145628380571);
#127 = AXIS2_PLACEMENT_3D('',#128,#129,#130);
#128 = CARTESIAN_POINT('',(183.,0.,6.5));
#129 = DIRECTION('',(-1.,-0.,-2.22044604925E-16));
#130 = DIRECTION('',(2.22044604925E-16,0.,-1.));
#131 = DEFINITIONAL_REPRESENTATION('',(#132),#136);
#132 = LINE('',#133,#134);
#133 = CARTESIAN_POINT('',(-0.,-0.));
#134 = VECTOR('',#135,1.);
#135 = DIRECTION('',(-1.,-0.));
#136 = ( GEOMETRIC_REPRESENTATION_CONTEXT(2) 
PARAMETRIC_REPRESENTATION_CONTEXT() REPRESENTATION_CONTEXT('2D SPACE',''
  ) );
#137 = FACE_BOUND('',#138,.F.);
#138 = EDGE_LOOP('',(#139));
#139 = ORIENTED_EDGE('',*,*,#21,.F.);
#140 = ADVANCED_FACE('',(#141),#93,.F.);
#141 = FACE_BOUND('',#142,.T.);
#142 = EDGE_LOOP('',(#143));
#143 = ORIENTED_EDGE('',*,*,#78,.F.);
#144 = ADVANCED_FACE('',(#145),#126,.T.);
#145 = FACE_BOUND('',#146,.T.);
#146 = EDGE_LOOP('',(#147,#176,#197,#198));
#147 = ORIENTED_EDGE('',*,*,#148,.F.);
#148 = EDGE_CURVE('',#149,#149,#151,.T.);
#149 = VERTEX_POINT('',#150);
#150 = CARTESIAN_POINT('',(221.,-6.178751317298E-15,-18.72666666666));
#151 = SURFACE_CURVE('',#152,(#157,#164),.PCURVE_S1.);
#152 = CIRCLE('',#153,25.226666666667);
#153 = AXIS2_PLACEMENT_3D('',#154,#155,#156);
#154 = CARTESIAN_POINT('',(221.,0.,6.5));
#155 = DIRECTION('',(1.,0.,2.22044604925E-16));
#156 = DIRECTION('',(2.22044604925E-16,0.,-1.));
#157 = PCURVE('',#126,#158);
#158 = DEFINITIONAL_REPRESENTATION('',(#159),#163);
#159 = LINE('',#160,#161);
#160 = CARTESIAN_POINT('',(-0.,-38.));
#161 = VECTOR('',#162,1.);
#162 = DIRECTION('',(-1.,-0.));
#163 = ( GEOMETRIC_REPRESENTATION_CONTEXT(2) 
PARAMETRIC_REPRESENTATION_CONTEXT() REPRESENTATION_CONTEXT('2D SPACE',''
  ) );
#164 = PCURVE('',#165,#170);
#165 = PLANE('',#166);
#166 = AXIS2_PLACEMENT_3D('',#167,#168,#169);
#167 = CARTESIAN_POINT('',(221.,0.,5.));
#168 = DIRECTION('',(1.,0.,2.22044604925E-16));
#169 = DIRECTION('',(2.22044604925E-16,0.,-1.));
#170 = DEFINITIONAL_REPRESENTATION('',(#171),#175);
#171 = CIRCLE('',#172,25.226666666667);
#172 = AXIS2_PLACEMENT_2D('',#173,#174);
#173 = CARTESIAN_POINT('',(-1.5,0.));
#174 = DIRECTION('',(1.,0.));
#175 = ( GEOMETRIC_REPRESENTATION_CONTEXT(2) 
PARAMETRIC_REPRESENTATION_CONTEXT() REPRESENTATION_CONTEXT('2D SPACE',''
  ) );
#176 = ORIENTED_EDGE('',*,*,#177,.F.);
#177 = EDGE_CURVE('',#110,#149,#178,.T.);
#178 = SEAM_CURVE('',#179,(#183,#190),.PCURVE_S1.);
#179 = LINE('',#180,#181);
#180 = CARTESIAN_POINT('',(183.,-7.543824282748E-15,-24.3));
#181 = VECTOR('',#182,1.);
#182 = DIRECTION('',(0.989414914284,3.554272502898E-17,0.145114187428));
#183 = PCURVE('',#126,#184);
#184 = DEFINITIONAL_REPRESENTATION('',(#185),#189);
#185 = LINE('',#186,#187);
#186 = CARTESIAN_POINT('',(-6.28318530718,0.));
#187 = VECTOR('',#188,1.);
#188 = DIRECTION('',(-0.,-1.));
#189 = ( GEOMETRIC_REPRESENTATION_CONTEXT(2) 
PARAMETRIC_REPRESENTATION_CONTEXT() REPRESENTATION_CONTEXT('2D SPACE',''
  ) );
#190 = PCURVE('',#126,#191);
#191 = DEFINITIONAL_REPRESENTATION('',(#192),#196);
#192 = LINE('',#193,#194);
#193 = CARTESIAN_POINT('',(0.,-0.));
#194 = VECTOR('',#195,1.);
#195 = DIRECTION('',(-0.,-1.));
#196 = ( GEOMETRIC_REPRESENTATION_CONTEXT(2) 
PARAMETRIC_REPRESENTATION_CONTEXT() REPRESENTATION_CONTEXT('2D SPACE',''
  ) );
#197 = ORIENTED_EDGE('',*,*,#109,.T.);
#198 = ORIENTED_EDGE('',*,*,#177,.T.);
#199 = ADVANCED_FACE('',(#200,#231),#165,.F.);
#200 = FACE_BOUND('',#201,.F.);
#201 = EDGE_LOOP('',(#202));
#202 = ORIENTED_EDGE('',*,*,#203,.T.);
#203 = EDGE_CURVE('',#204,#204,#206,.T.);
#204 = VERTEX_POINT('',#205);
#205 = CARTESIAN_POINT('',(221.,-6.760050331293E-15,-22.6));
#206 = SURFACE_CURVE('',#207,(#212,#219),.PCURVE_S1.);
#207 = CIRCLE('',#208,27.6);
#208 = AXIS2_PLACEMENT_3D('',#209,#210,#211);
#209 = CARTESIAN_POINT('',(221.,0.,5.));
#210 = DIRECTION('',(1.,-0.,2.22044604925E-16));
#211 = DIRECTION('',(2.22044604925E-16,0.,-1.));
#212 = PCURVE('',#165,#213);
#213 = DEFINITIONAL_REPRESENTATION('',(#214),#218);
#214 = CIRCLE('',#215,27.6);
#215 = AXIS2_PLACEMENT_2D('',#216,#217);
#216 = CARTESIAN_POINT('',(0.,0.));
#217 = DIRECTION('',(1.,0.));
#218 = ( GEOMETRIC_REPRESENTATION_CONTEXT(2) 
PARAMETRIC_REPRESENTATION_CONTEXT() REPRESENTATION_CONTEXT('2D SPACE',''
  ) );
#219 = PCURVE('',#220,#225);
#220 = CONICAL_SURFACE('',#221,27.6,0.136915775755);
#221 = AXIS2_PLACEMENT_3D('',#222,#223,#224);
#222 = CARTESIAN_POINT('',(221.,0.,5.));
#223 = DIRECTION('',(-1.,-0.,-2.22044604925E-16));
#224 = DIRECTION('',(2.22044604925E-16,0.,-1.));
#225 = DEFINITIONAL_REPRESENTATION('',(#226),#230);
#226 = LINE('',#227,#228);
#227 = CARTESIAN_POINT('',(-0.,-0.));
#228 = VECTOR('',#229,1.);
#229 = DIRECTION('',(-1.,-0.));
#230 = ( GEOMETRIC_REPRESENTATION_CONTEXT(2) 
PARAMETRIC_REPRESENTATION_CONTEXT() REPRESENTATION_CONTEXT('2D SPACE',''
  ) );
#231 = FACE_BOUND('',#232,.F.);
#232 = EDGE_LOOP('',(#233));
#233 = ORIENTED_EDGE('',*,*,#148,.F.);
#234 = ADVANCED_FACE('',(#235),#220,.T.);
#235 = FACE_BOUND('',#236,.T.);
#236 = EDGE_LOOP('',(#237,#266,#287,#288));
#237 = ORIENTED_EDGE('',*,*,#238,.F.);
#238 = EDGE_CURVE('',#239,#239,#241,.T.);
#239 = VERTEX_POINT('',#240);
#240 = CARTESIAN_POINT('',(259.,-5.47770906072E-15,-17.36444444444));
#241 = SURFACE_CURVE('',#242,(#247,#254),.PCURVE_S1.);
#242 = CIRCLE('',#243,22.364444444444);
#243 = AXIS2_PLACEMENT_3D('',#244,#245,#246);
#244 = CARTESIAN_POINT('',(259.,0.,5.));
#245 = DIRECTION('',(1.,0.,2.22044604925E-16));
#246 = DIRECTION('',(2.22044604925E-16,0.,-1.));
#247 = PCURVE('',#220,#248);
#248 = DEFINITIONAL_REPRESENTATION('',(#249),#253);
#249 = LINE('',#250,#251);
#250 = CARTESIAN_POINT('',(-0.,-38.));
#251 = VECTOR('',#252,1.);
#252 = DIRECTION('',(-1.,-0.));
#253 = ( GEOMETRIC_REPRESENTATION_CONTEXT(2) 
PARAMETRIC_REPRESENTATION_CONTEXT() REPRESENTATION_CONTEXT('2D SPACE',''
  ) );
#254 = PCURVE('',#255,#260);
#255 = PLANE('',#256);
#256 = AXIS2_PLACEMENT_3D('',#257,#258,#259);
#257 = CARTESIAN_POINT('',(259.,0.,3.5));
#258 = DIRECTION('',(1.,0.,2.22044604925E-16));
#259 = DIRECTION('',(2.22044604925E-16,0.,-1.));
#260 = DEFINITIONAL_REPRESENTATION('',(#261),#265);
#261 = CIRCLE('',#262,22.364444444444);
#262 = AXIS2_PLACEMENT_2D('',#263,#264);
#263 = CARTESIAN_POINT('',(-1.5,0.));
#264 = DIRECTION('',(1.,0.));
#265 = ( GEOMETRIC_REPRESENTATION_CONTEXT(2) 
PARAMETRIC_REPRESENTATION_CONTEXT() REPRESENTATION_CONTEXT('2D SPACE',''
  ) );
#266 = ORIENTED_EDGE('',*,*,#267,.F.);
#267 = EDGE_CURVE('',#204,#239,#268,.T.);
#268 = SEAM_CURVE('',#269,(#273,#280),.PCURVE_S1.);
#269 = LINE('',#270,#271);
#270 = CARTESIAN_POINT('',(221.,-6.760050331293E-15,-22.6));
#271 = VECTOR('',#272,1.);
#272 = DIRECTION('',(0.990641668107,3.343001829904E-17,0.136488407606));
#273 = PCURVE('',#220,#274);
#274 = DEFINITIONAL_REPRESENTATION('',(#275),#279);
#275 = LINE('',#276,#277);
#276 = CARTESIAN_POINT('',(-6.28318530718,0.));
#277 = VECTOR('',#278,1.);
#278 = DIRECTION('',(-0.,-1.));
#279 = ( GEOMETRIC_REPRESENTATION_CONTEXT(2) 
PARAMETRIC_REPRESENTATION_CONTEXT() REPRESENTATION_CONTEXT('2D SPACE',''
  ) );
#280 = PCURVE('',#220,#281);
#281 = DEFINITIONAL_REPRESENTATION('',(#282),#286);
#282 = LINE('',#283,#284);
#283 = CARTESIAN_POINT('',(0.,-0.));
#284 = VECTOR('',#285,1.);
#285 = DIRECTION('',(-0.,-1.));
#286 = ( GEOMETRIC_REPRESENTATION_CONTEXT(2) 
PARAMETRIC_REPRESENTATION_CONTEXT() REPRESENTATION_CONTEXT('2D SPACE',''
  ) );
#287 = ORIENTED_EDGE('',*,*,#203,.T.);
#288 = ORIENTED_EDGE('',*,*,#267,.T.);
#289 = ADVANCED_FACE('',(#290,#321),#255,.F.);
#290 = FACE_BOUND('',#291,.F.);
#291 = EDGE_LOOP('',(#292));
#292 = ORIENTED_EDGE('',*,*,#293,.T.);
#293 = EDGE_CURVE('',#294,#294,#296,.T.);
#294 = VERTEX_POINT('',#295);
#295 = CARTESIAN_POINT('',(259.,-5.976276379839E-15,-20.9));
#296 = SURFACE_CURVE('',#297,(#302,#309),.PCURVE_S1.);
#297 = CIRCLE('',#298,24.4);
#298 = AXIS2_PLACEMENT_3D('',#299,#300,#301);
#299 = CARTESIAN_POINT('',(259.,0.,3.5));
#300 = DIRECTION('',(1.,-0.,2.22044604925E-16));
#301 = DIRECTION('',(2.22044604925E-16,0.,-1.));
#302 = PCURVE('',#255,#303);
#303 = DEFINITIONAL_REPRESENTATION('',(#304),#308);
#304 = CIRCLE('',#305,24.4);
#305 = AXIS2_PLACEMENT_2D('',#306,#307);
#306 = CARTESIAN_POINT('',(0.,0.));
#307 = DIRECTION('',(1.,0.));
#308 = ( GEOMETRIC_REPRESENTATION_CONTEXT(2) 
PARAMETRIC_REPRESENTATION_CONTEXT() REPRESENTATION_CONTEXT('2D SPACE',''
  ) );
#309 = PCURVE('',#310,#315);
#310 = CONICAL_SURFACE('',#311,24.4,0.128182203854);
#311 = AXIS2_PLACEMENT_3D('',#312,#313,#314);
#312 = CARTESIAN_POINT('',(259.,0.,3.5));
#313 = DIRECTION('',(-1.,-0.,-2.22044604925E-16));
#314 = DIRECTION('',(2.22044604925E-16,0.,-1.));
#315 = DEFINITIONAL_REPRESENTATION('',(#316),#320);
#316 = LINE('',#317,#318);
#317 = CARTESIAN_POINT('',(-0.,-0.));
#318 = VECTOR('',#319,1.);
#319 = DIRECTION('',(-1.,-0.));
#320 = ( GEOMETRIC_REPRESENTATION_CONTEXT(2) 
PARAMETRIC_REPRESENTATION_CONTEXT() REPRESENTATION_CONTEXT('2D SPACE',''
  ) );
#321 = FACE_BOUND('',#322,.F.);
#322 = EDGE_LOOP('',(#323));
#323 = ORIENTED_EDGE('',*,*,#238,.F.);
#324 = ADVANCED_FACE('',(#325),#310,.T.);
#325 = FACE_BOUND('',#326,.T.);
#326 = EDGE_LOOP('',(#327,#356,#377,#378));
#327 = ORIENTED_EDGE('',*,*,#328,.F.);
#328 = EDGE_CURVE('',#329,#329,#331,.T.);
#329 = VERTEX_POINT('',#330);
#330 = CARTESIAN_POINT('',(297.,-4.776666804141E-15,-16.00222222222));
#331 = SURFACE_CURVE('',#332,(#337,#344),.PCURVE_S1.);
#332 = CIRCLE('',#333,19.502222222222);
#333 = AXIS2_PLACEMENT_3D('',#334,#335,#336);
#334 = CARTESIAN_POINT('',(297.,0.,3.5));
#335 = DIRECTION('',(1.,0.,2.22044604925E-16));
#336 = DIRECTION('',(2.22044604925E-16,0.,-1.));
#337 = PCURVE('',#310,#338);
#338 = DEFINITIONAL_REPRESENTATION('',(#339),#343);
#339 = LINE('',#340,#341);
#340 = CARTESIAN_POINT('',(-0.,-38.));
#341 = VECTOR('',#342,1.);
#342 = DIRECTION('',(-1.,-0.));
#343 = ( GEOMETRIC_REPRESENTATION_CONTEXT(2) 
PARAMETRIC_REPRESENTATION_CONTEXT() REPRESENTATION_CONTEXT('2D SPACE',''
  ) );
#344 = PCURVE('',#345,#350);
#345 = PLANE('',#346);
#346 = AXIS2_PLACEMENT_3D('',#347,#348,#349);
#347 = CARTESIAN_POINT('',(297.,0.,2.));
#348 = DIRECTION('',(1.,0.,2.22044604925E-16));
#349 = DIRECTION('',(2.22044604925E-16,0.,-1.));
#350 = DEFINITIONAL_REPRESENTATION('',(#351),#355);
#351 = CIRCLE('',#352,19.502222222222);
#352 = AXIS2_PLACEMENT_2D('',#353,#354);
#353 = CARTESIAN_POINT('',(-1.5,0.));
#354 = DIRECTION('',(1.,0.));
#355 = ( GEOMETRIC_REPRESENTATION_CONTEXT(2) 
PARAMETRIC_REPRESENTATION_CONTEXT() REPRESENTATION_CONTEXT('2D SPACE',''
  ) );
#356 = ORIENTED_EDGE('',*,*,#357,.F.);
#357 = EDGE_CURVE('',#294,#329,#358,.T.);
#358 = SEAM_CURVE('',#359,(#363,#370),.PCURVE_S1.);
#359 = LINE('',#360,#361);
#360 = CARTESIAN_POINT('',(259.,-5.976276379839E-15,-20.9));
#361 = VECTOR('',#362,1.);
#362 = DIRECTION('',(0.99179590378,3.13096806135E-17,0.127831472043));
#363 = PCURVE('',#310,#364);
#364 = DEFINITIONAL_REPRESENTATION('',(#365),#369);
#365 = LINE('',#366,#367);
#366 = CARTESIAN_POINT('',(-6.28318530718,0.));
#367 = VECTOR('',#368,1.);
#368 = DIRECTION('',(-0.,-1.));
#369 = ( GEOMETRIC_REPRESENTATION_CONTEXT(2) 
PARAMETRIC_REPRESENTATION_CONTEXT() REPRESENTATION_CONTEXT('2D SPACE',''
  ) );
#370 = PCURVE('',#310,#371);
#371 = DEFINITIONAL_REPRESENTATION('',(#372),#376);
#372 = LINE('',#373,#374);
#373 = CARTESIAN_POINT('',(0.,-0.));
#374 = VECTOR('',#375,1.);
#375 = DIRECTION('',(-0.,-1.));
#376 = ( GEOMETRIC_REPRESENTATION_CONTEXT(2) 
PARAMETRIC_REPRESENTATION_CONTEXT() REPRESENTATION_CONTEXT('2D SPACE',''
  ) );
#377 = ORIENTED_EDGE('',*,*,#293,.T.);
#378 = ORIENTED_EDGE('',*,*,#357,.T.);
#379 = ADVANCED_FACE('',(#380,#411),#345,.F.);
#380 = FACE_BOUND('',#381,.F.);
#381 = EDGE_LOOP('',(#382));
#382 = ORIENTED_EDGE('',*,*,#383,.T.);
#383 = EDGE_CURVE('',#384,#384,#386,.T.);
#384 = VERTEX_POINT('',#385);
#385 = CARTESIAN_POINT('',(297.,-5.192502428385E-15,-19.2));
#386 = SURFACE_CURVE('',#387,(#392,#399),.PCURVE_S1.);
#387 = CIRCLE('',#388,21.2);
#388 = AXIS2_PLACEMENT_3D('',#389,#390,#391);
#389 = CARTESIAN_POINT('',(297.,0.,2.));
#390 = DIRECTION('',(1.,-0.,2.22044604925E-16));
#391 = DIRECTION('',(2.22044604925E-16,0.,-1.));
#392 = PCURVE('',#345,#393);
#393 = DEFINITIONAL_REPRESENTATION('',(#394),#398);
#394 = CIRCLE('',#395,21.2);
#395 = AXIS2_PLACEMENT_2D('',#396,#397);
#396 = CARTESIAN_POINT('',(0.,0.));
#397 = DIRECTION('',(1.,0.));
#398 = ( GEOMETRIC_REPRESENTATION_CONTEXT(2) 
PARAMETRIC_REPRESENTATION_CONTEXT() REPRESENTATION_CONTEXT('2D SPACE',''
  ) );
#399 = PCURVE('',#400,#405);
#400 = CONICAL_SURFACE('',#401,21.2,0.119428926018);
#401 = AXIS2_PLACEMENT_3D('',#402,#403,#404);
#402 = CARTESIAN_POINT('',(297.,0.,2.));
#403 = DIRECTION('',(-1.,-0.,-2.22044604925E-16));
#404 = DIRECTION('',(2.22044604925E-16,0.,-1.));
#405 = DEFINITIONAL_REPRESENTATION('',(#406),#410);
#406 = LINE('',#407,#408);
#407 = CARTESIAN_POINT('',(-0.,-0.));
#408 = VECTOR('',#409,1.);
#409 = DIRECTION('',(-1.,-0.));
#410 = ( GEOMETRIC_REPRESENTATION_CONTEXT(2) 
PARAMETRIC_REPRESENTATION_CONTEXT() REPRESENTATION_CONTEXT('2D SPACE',''
  ) );
#411 = FACE_BOUND('',#412,.F.);
#412 = EDGE_LOOP('',(#413));
#413 = ORIENTED_EDGE('',*,*,#328,.F.);
#414 = ADVANCED_FACE('',(#415),#400,.T.);
#415 = FACE_BOUND('',#416,.T.);
#416 = EDGE_LOOP('',(#417,#448,#494,#523,#544,#545,#546,#570));
#417 = ORIENTED_EDGE('',*,*,#418,.F.);
#418 = EDGE_CURVE('',#419,#421,#423,.T.);
#419 = VERTEX_POINT('',#420);
#420 = CARTESIAN_POINT('',(342.,5.242288467269,16.904979423868));
#421 = VERTEX_POINT('',#422);
#422 = CARTESIAN_POINT('',(342.,-5.242288467269,16.904979423868));
#423 = SURFACE_CURVE('',#424,(#429,#436),.PCURVE_S1.);
#424 = CIRCLE('',#425,15.8);
#425 = AXIS2_PLACEMENT_3D('',#426,#427,#428);
#426 = CARTESIAN_POINT('',(342.,0.,2.));
#427 = DIRECTION('',(1.,-0.,2.22044604925E-16));
#428 = DIRECTION('',(2.22044604925E-16,0.,-1.));
#429 = PCURVE('',#400,#430);
#430 = DEFINITIONAL_REPRESENTATION('',(#431),#435);
#431 = LINE('',#432,#433);
#432 = CARTESIAN_POINT('',(-0.,-45.));
#433 = VECTOR('',#434,1.);
#434 = DIRECTION('',(-1.,-0.));
#435 = ( GEOMETRIC_REPRESENTATION_CONTEXT(2) 
PARAMETRIC_REPRESENTATION_CONTEXT() REPRESENTATION_CONTEXT('2D SPACE',''
  ) );
#436 = PCURVE('',#437,#442);
#437 = PLANE('',#438);
#438 = AXIS2_PLACEMENT_3D('',#439,#440,#441);
#439 = CARTESIAN_POINT('',(342.,0.,2.));
#440 = DIRECTION('',(1.,0.,2.22044604925E-16));
#441 = DIRECTION('',(2.22044604925E-16,0.,-1.));
#442 = DEFINITIONAL_REPRESENTATION('',(#443),#447);
#443 = CIRCLE('',#444,15.8);
#444 = AXIS2_PLACEMENT_2D('',#445,#446);
#445 = CARTESIAN_POINT('',(0.,0.));
#446 = DIRECTION('',(1.,0.));
#447 = ( GEOMETRIC_REPRESENTATION_CONTEXT(2) 
PARAMETRIC_REPRESENTATION_CONTEXT() REPRESENTATION_CONTEXT('2D SPACE',''
  ) );
#448 = ORIENTED_EDGE('',*,*,#449,.F.);
#449 = EDGE_CURVE('',#450,#419,#452,.T.);
#450 = VERTEX_POINT('',#451);
#451 = CARTESIAN_POINT('',(335.,7.299550304566,16.953466666666));
#452 = SURFACE_CURVE('',#453,(#463,#476),.PCURVE_S1.);
#453 = B_SPLINE_CURVE_WITH_KNOTS('',8,(#454,#455,#456,#457,#458,#459,
    #460,#461,#462),.UNSPECIFIED.,.F.,.F.,(9,9),(0.,1.),
  .PIECEWISE_BEZIER_KNOTS.);
#454 = CARTESIAN_POINT('',(334.99999999999,7.299550304567,
    16.953466666667));
#455 = CARTESIAN_POINT('',(335.87703267386,7.06346989006,16.951595663629
    ));
#456 = CARTESIAN_POINT('',(336.75365188829,6.822974481146,
    16.948521615058));
#457 = CARTESIAN_POINT('',(337.62981591504,6.577497512116,
    16.944246592682));
#458 = CARTESIAN_POINT('',(338.50545496441,6.326338222251,
    16.938773065947));
#459 = CARTESIAN_POINT('',(339.38046880538,6.068636103533,
    16.932104171611));
#460 = CARTESIAN_POINT('',(340.25471260206,5.803231390096,
    16.924244306405));
#461 = CARTESIAN_POINT('',(341.12799195797,5.52861326756,16.915199501661
    ));
#462 = CARTESIAN_POINT('',(342.,5.242288467269,16.904979423868));
#463 = PCURVE('',#400,#464);
#464 = DEFINITIONAL_REPRESENTATION('',(#465),#475);
#465 = B_SPLINE_CURVE_WITH_KNOTS('',8,(#466,#467,#468,#469,#470,#471,
    #472,#473,#474),.UNSPECIFIED.,.F.,.F.,(9,9),(0.,1.),
  .PIECEWISE_BEZIER_KNOTS.);
#466 = CARTESIAN_POINT('',(-2.687469065897,-37.99999999999));
#467 = CARTESIAN_POINT('',(-2.7001693014,-38.87703267386));
#468 = CARTESIAN_POINT('',(-2.713259858692,-39.75365188829));
#469 = CARTESIAN_POINT('',(-2.726784212847,-40.62981591504));
#470 = CARTESIAN_POINT('',(-2.740795602969,-41.50545496441));
#471 = CARTESIAN_POINT('',(-2.755358885667,-42.38046880538));
#472 = CARTESIAN_POINT('',(-2.770560277851,-43.25471260207));
#473 = CARTESIAN_POINT('',(-2.786511126947,-44.12799195797));
#474 = CARTESIAN_POINT('',(-2.803391789745,-45.));
#475 = ( GEOMETRIC_REPRESENTATION_CONTEXT(2) 
PARAMETRIC_REPRESENTATION_CONTEXT() REPRESENTATION_CONTEXT('2D SPACE',''
  ) );
#476 = PCURVE('',#477,#482);
#477 = CONICAL_SURFACE('',#478,18.,0.110657221174);
#478 = AXIS2_PLACEMENT_3D('',#479,#480,#481);
#479 = CARTESIAN_POINT('',(335.,0.,0.5));
#480 = DIRECTION('',(-1.,-0.,-2.22044604925E-16));
#481 = DIRECTION('',(2.22044604925E-16,0.,-1.));
#482 = DEFINITIONAL_REPRESENTATION('',(#483),#493);
#483 = B_SPLINE_CURVE_WITH_KNOTS('',8,(#484,#485,#486,#487,#488,#489,
    #490,#491,#492),.UNSPECIFIED.,.F.,.F.,(9,9),(0.,1.),
  .PIECEWISE_BEZIER_KNOTS.);
#484 = CARTESIAN_POINT('',(-2.724033454349,3.299214560085E-12));
#485 = CARTESIAN_POINT('',(-2.735980009133,-0.877032673861));
#486 = CARTESIAN_POINT('',(-2.748271496666,-1.753651888291));
#487 = CARTESIAN_POINT('',(-2.760946663867,-2.629815915044));
#488 = CARTESIAN_POINT('',(-2.774053015768,-3.505454964414));
#489 = CARTESIAN_POINT('',(-2.787648478363,-4.380468805387));
#490 = CARTESIAN_POINT('',(-2.801810198806,-5.254712602069));
#491 = CARTESIAN_POINT('',(-2.81663792721,-6.127991957978));
#492 = CARTESIAN_POINT('',(-2.832293687658,-7.));
#493 = ( GEOMETRIC_REPRESENTATION_CONTEXT(2) 
PARAMETRIC_REPRESENTATION_CONTEXT() REPRESENTATION_CONTEXT('2D SPACE',''
  ) );
#494 = ORIENTED_EDGE('',*,*,#495,.F.);
#495 = EDGE_CURVE('',#496,#450,#498,.T.);
#496 = VERTEX_POINT('',#497);
#497 = CARTESIAN_POINT('',(335.,-4.075624547562E-15,-14.64));
#498 = SURFACE_CURVE('',#499,(#504,#511),.PCURVE_S1.);
#499 = CIRCLE('',#500,16.64);
#500 = AXIS2_PLACEMENT_3D('',#501,#502,#503);
#501 = CARTESIAN_POINT('',(335.,0.,2.));
#502 = DIRECTION('',(1.,0.,2.22044604925E-16));
#503 = DIRECTION('',(2.22044604925E-16,0.,-1.));
#504 = PCURVE('',#400,#505);
#505 = DEFINITIONAL_REPRESENTATION('',(#506),#510);
#506 = LINE('',#507,#508);
#507 = CARTESIAN_POINT('',(-0.,-38.));
#508 = VECTOR('',#509,1.);
#509 = DIRECTION('',(-1.,-0.));
#510 = ( GEOMETRIC_REPRESENTATION_CONTEXT(2) 
PARAMETRIC_REPRESENTATION_CONTEXT() REPRESENTATION_CONTEXT('2D SPACE',''
  ) );
#511 = PCURVE('',#512,#517);
#512 = PLANE('',#513);
#513 = AXIS2_PLACEMENT_3D('',#514,#515,#516);
#514 = CARTESIAN_POINT('',(335.,0.,0.5));
#515 = DIRECTION('',(1.,0.,2.22044604925E-16));
#516 = DIRECTION('',(2.22044604925E-16,0.,-1.));
#517 = DEFINITIONAL_REPRESENTATION('',(#518),#522);
#518 = CIRCLE('',#519,16.64);
#519 = AXIS2_PLACEMENT_2D('',#520,#521);
#520 = CARTESIAN_POINT('',(-1.5,0.));
#521 = DIRECTION('',(1.,0.));
#522 = ( GEOMETRIC_REPRESENTATION_CONTEXT(2) 
PARAMETRIC_REPRESENTATION_CONTEXT() REPRESENTATION_CONTEXT('2D SPACE',''
  ) );
#523 = ORIENTED_EDGE('',*,*,#524,.F.);
#524 = EDGE_CURVE('',#384,#496,#525,.T.);
#525 = SEAM_CURVE('',#526,(#530,#537),.PCURVE_S1.);
#526 = LINE('',#527,#528);
#527 = CARTESIAN_POINT('',(297.,-5.192502428385E-15,-19.2));
#528 = VECTOR('',#529,1.);
#529 = DIRECTION('',(0.992876838487,2.918216261281E-17,0.119145220618));
#530 = PCURVE('',#400,#531);
#531 = DEFINITIONAL_REPRESENTATION('',(#532),#536);
#532 = LINE('',#533,#534);
#533 = CARTESIAN_POINT('',(-6.28318530718,0.));
#534 = VECTOR('',#535,1.);
#535 = DIRECTION('',(-0.,-1.));
#536 = ( GEOMETRIC_REPRESENTATION_CONTEXT(2) 
PARAMETRIC_REPRESENTATION_CONTEXT() REPRESENTATION_CONTEXT('2D SPACE',''
  ) );
#537 = PCURVE('',#400,#538);
#538 = DEFINITIONAL_REPRESENTATION('',(#539),#543);
#539 = LINE('',#540,#541);
#540 = CARTESIAN_POINT('',(0.,-0.));
#541 = VECTOR('',#542,1.);
#542 = DIRECTION('',(-0.,-1.));
#543 = ( GEOMETRIC_REPRESENTATION_CONTEXT(2) 
PARAMETRIC_REPRESENTATION_CONTEXT() REPRESENTATION_CONTEXT('2D SPACE',''
  ) );
#544 = ORIENTED_EDGE('',*,*,#383,.T.);
#545 = ORIENTED_EDGE('',*,*,#524,.T.);
#546 = ORIENTED_EDGE('',*,*,#547,.F.);
#547 = EDGE_CURVE('',#548,#496,#550,.T.);
#548 = VERTEX_POINT('',#549);
#549 = CARTESIAN_POINT('',(335.,-7.299550304566,16.953466666667));
#550 = SURFACE_CURVE('',#551,(#556,#563),.PCURVE_S1.);
#551 = CIRCLE('',#552,16.64);
#552 = AXIS2_PLACEMENT_3D('',#553,#554,#555);
#553 = CARTESIAN_POINT('',(335.,0.,2.));
#554 = DIRECTION('',(1.,0.,2.22044604925E-16));
#555 = DIRECTION('',(2.22044604925E-16,0.,-1.));
#556 = PCURVE('',#400,#557);
#557 = DEFINITIONAL_REPRESENTATION('',(#558),#562);
#558 = LINE('',#559,#560);
#559 = CARTESIAN_POINT('',(-0.,-38.));
#560 = VECTOR('',#561,1.);
#561 = DIRECTION('',(-1.,-0.));
#562 = ( GEOMETRIC_REPRESENTATION_CONTEXT(2) 
PARAMETRIC_REPRESENTATION_CONTEXT() REPRESENTATION_CONTEXT('2D SPACE',''
  ) );
#563 = PCURVE('',#512,#564);
#564 = DEFINITIONAL_REPRESENTATION('',(#565),#569);
#565 = CIRCLE('',#566,16.64);
#566 = AXIS2_PLACEMENT_2D('',#567,#568);
#567 = CARTESIAN_POINT('',(-1.5,0.));
#568 = DIRECTION('',(1.,0.));
#569 = ( GEOMETRIC_REPRESENTATION_CONTEXT(2) 
PARAMETRIC_REPRESENTATION_CONTEXT() REPRESENTATION_CONTEXT('2D SPACE',''
  ) );
#570 = ORIENTED_EDGE('',*,*,#571,.F.);
#571 = EDGE_CURVE('',#421,#548,#572,.T.);
#572 = SURFACE_CURVE('',#573,(#583,#596),.PCURVE_S1.);
#573 = B_SPLINE_CURVE_WITH_KNOTS('',8,(#574,#575,#576,#577,#578,#579,
    #580,#581,#582),.UNSPECIFIED.,.F.,.F.,(9,9),(0.,1.),
  .PIECEWISE_BEZIER_KNOTS.);
#574 = CARTESIAN_POINT('',(342.,-5.242288467269,16.904979423868));
#575 = CARTESIAN_POINT('',(341.12799196145,-5.528613266417,
    16.915199501621));
#576 = CARTESIAN_POINT('',(340.25471260705,-5.803231388553,
    16.924244306357));
#577 = CARTESIAN_POINT('',(339.38046881099,-6.06863610186,
    16.932104171562));
#578 = CARTESIAN_POINT('',(338.50545496988,-6.326338220663,
    16.938773065915));
#579 = CARTESIAN_POINT('',(337.6298159198,-6.577497510784,
    16.944246592653));
#580 = CARTESIAN_POINT('',(336.75365189185,-6.822974480162,
    16.948521615047));
#581 = CARTESIAN_POINT('',(335.87703267582,-7.063469889533,
    16.951595663625));
#582 = CARTESIAN_POINT('',(335.,-7.299550304566,16.953466666666));
#583 = PCURVE('',#400,#584);
#584 = DEFINITIONAL_REPRESENTATION('',(#585),#595);
#585 = B_SPLINE_CURVE_WITH_KNOTS('',8,(#586,#587,#588,#589,#590,#591,
    #592,#593,#594),.UNSPECIFIED.,.F.,.F.,(9,9),(0.,1.),
  .PIECEWISE_BEZIER_KNOTS.);
#586 = CARTESIAN_POINT('',(-3.479793517434,-45.));
#587 = CARTESIAN_POINT('',(-3.496674180165,-44.12799196145));
#588 = CARTESIAN_POINT('',(-3.512625029239,-43.25471260705));
#589 = CARTESIAN_POINT('',(-3.527826421418,-42.38046881099));
#590 = CARTESIAN_POINT('',(-3.542389704122,-41.50545496988));
#591 = CARTESIAN_POINT('',(-3.556401094259,-40.6298159198));
#592 = CARTESIAN_POINT('',(-3.569925448433,-39.75365189185));
#593 = CARTESIAN_POINT('',(-3.583016005751,-38.87703267582));
#594 = CARTESIAN_POINT('',(-3.595716241282,-38.));
#595 = ( GEOMETRIC_REPRESENTATION_CONTEXT(2) 
PARAMETRIC_REPRESENTATION_CONTEXT() REPRESENTATION_CONTEXT('2D SPACE',''
  ) );
#596 = PCURVE('',#477,#597);
#597 = DEFINITIONAL_REPRESENTATION('',(#598),#608);
#598 = B_SPLINE_CURVE_WITH_KNOTS('',8,(#599,#600,#601,#602,#603,#604,
    #605,#606,#607),.UNSPECIFIED.,.F.,.F.,(9,9),(0.,1.),
  .PIECEWISE_BEZIER_KNOTS.);
#599 = CARTESIAN_POINT('',(-3.450891619521,-7.));
#600 = CARTESIAN_POINT('',(-3.466547379907,-6.127991961459));
#601 = CARTESIAN_POINT('',(-3.481375108291,-5.254712607058));
#602 = CARTESIAN_POINT('',(-3.495536828727,-4.380468810996));
#603 = CARTESIAN_POINT('',(-3.509132291329,-3.505454969888));
#604 = CARTESIAN_POINT('',(-3.522238643243,-2.629815919806));
#605 = CARTESIAN_POINT('',(-3.534913810463,-1.753651891854));
#606 = CARTESIAN_POINT('',(-3.54720529802,-0.87703267582));
#607 = CARTESIAN_POINT('',(-3.55915185283,0.));
#608 = ( GEOMETRIC_REPRESENTATION_CONTEXT(2) 
PARAMETRIC_REPRESENTATION_CONTEXT() REPRESENTATION_CONTEXT('2D SPACE',''
  ) );
#609 = ADVANCED_FACE('',(#610),#437,.T.);
#610 = FACE_BOUND('',#611,.T.);
#611 = EDGE_LOOP('',(#612,#634));
#612 = ORIENTED_EDGE('',*,*,#613,.F.);
#613 = EDGE_CURVE('',#419,#421,#614,.T.);
#614 = SURFACE_CURVE('',#615,(#620,#627),.PCURVE_S1.);
#615 = CIRCLE('',#616,17.222222222222);
#616 = AXIS2_PLACEMENT_3D('',#617,#618,#619);
#617 = CARTESIAN_POINT('',(342.,0.,0.5));
#618 = DIRECTION('',(1.,0.,2.22044604925E-16));
#619 = DIRECTION('',(2.22044604925E-16,0.,-1.));
#620 = PCURVE('',#437,#621);
#621 = DEFINITIONAL_REPRESENTATION('',(#622),#626);
#622 = CIRCLE('',#623,17.222222222222);
#623 = AXIS2_PLACEMENT_2D('',#624,#625);
#624 = CARTESIAN_POINT('',(1.5,0.));
#625 = DIRECTION('',(1.,0.));
#626 = ( GEOMETRIC_REPRESENTATION_CONTEXT(2) 
PARAMETRIC_REPRESENTATION_CONTEXT() REPRESENTATION_CONTEXT('2D SPACE',''
  ) );
#627 = PCURVE('',#477,#628);
#628 = DEFINITIONAL_REPRESENTATION('',(#629),#633);
#629 = LINE('',#630,#631);
#630 = CARTESIAN_POINT('',(-0.,-7.));
#631 = VECTOR('',#632,1.);
#632 = DIRECTION('',(-1.,-0.));
#633 = ( GEOMETRIC_REPRESENTATION_CONTEXT(2) 
PARAMETRIC_REPRESENTATION_CONTEXT() REPRESENTATION_CONTEXT('2D SPACE',''
  ) );
#634 = ORIENTED_EDGE('',*,*,#418,.T.);
#635 = ADVANCED_FACE('',(#636),#477,.T.);
#636 = FACE_BOUND('',#637,.T.);
#637 = EDGE_LOOP('',(#638,#662,#685,#714,#748,#777,#806,#828,#829,#851,
    #852,#853));
#638 = ORIENTED_EDGE('',*,*,#639,.T.);
#639 = EDGE_CURVE('',#548,#640,#642,.T.);
#640 = VERTEX_POINT('',#641);
#641 = CARTESIAN_POINT('',(335.,-4.40872847693E-15,-17.5));
#642 = SURFACE_CURVE('',#643,(#648,#655),.PCURVE_S1.);
#643 = CIRCLE('',#644,18.);
#644 = AXIS2_PLACEMENT_3D('',#645,#646,#647);
#645 = CARTESIAN_POINT('',(335.,0.,0.5));
#646 = DIRECTION('',(1.,-0.,2.22044604925E-16));
#647 = DIRECTION('',(2.22044604925E-16,0.,-1.));
#648 = PCURVE('',#477,#649);
#649 = DEFINITIONAL_REPRESENTATION('',(#650),#654);
#650 = LINE('',#651,#652);
#651 = CARTESIAN_POINT('',(-0.,-0.));
#652 = VECTOR('',#653,1.);
#653 = DIRECTION('',(-1.,-0.));
#654 = ( GEOMETRIC_REPRESENTATION_CONTEXT(2) 
PARAMETRIC_REPRESENTATION_CONTEXT() REPRESENTATION_CONTEXT('2D SPACE',''
  ) );
#655 = PCURVE('',#512,#656);
#656 = DEFINITIONAL_REPRESENTATION('',(#657),#661);
#657 = CIRCLE('',#658,18.);
#658 = AXIS2_PLACEMENT_2D('',#659,#660);
#659 = CARTESIAN_POINT('',(0.,0.));
#660 = DIRECTION('',(1.,0.));
#661 = ( GEOMETRIC_REPRESENTATION_CONTEXT(2) 
PARAMETRIC_REPRESENTATION_CONTEXT() REPRESENTATION_CONTEXT('2D SPACE',''
  ) );
#662 = ORIENTED_EDGE('',*,*,#663,.T.);
#663 = EDGE_CURVE('',#640,#664,#666,.T.);
#664 = VERTEX_POINT('',#665);
#665 = CARTESIAN_POINT('',(373.,-3.374582290984E-15,-13.27777777777));
#666 = SEAM_CURVE('',#667,(#671,#678),.PCURVE_S1.);
#667 = LINE('',#668,#669);
#668 = CARTESIAN_POINT('',(335.,-4.40872847693E-15,-17.5));
#669 = VECTOR('',#670,1.);
#670 = DIRECTION('',(0.993883734674,2.70479229865E-17,0.110431526075));
#671 = PCURVE('',#477,#672);
#672 = DEFINITIONAL_REPRESENTATION('',(#673),#677);
#673 = LINE('',#674,#675);
#674 = CARTESIAN_POINT('',(0.,-0.));
#675 = VECTOR('',#676,1.);
#676 = DIRECTION('',(-0.,-1.));
#677 = ( GEOMETRIC_REPRESENTATION_CONTEXT(2) 
PARAMETRIC_REPRESENTATION_CONTEXT() REPRESENTATION_CONTEXT('2D SPACE',''
  ) );
#678 = PCURVE('',#477,#679);
#679 = DEFINITIONAL_REPRESENTATION('',(#680),#684);
#680 = LINE('',#681,#682);
#681 = CARTESIAN_POINT('',(-6.28318530718,0.));
#682 = VECTOR('',#683,1.);
#683 = DIRECTION('',(-0.,-1.));
#684 = ( GEOMETRIC_REPRESENTATION_CONTEXT(2) 
PARAMETRIC_REPRESENTATION_CONTEXT() REPRESENTATION_CONTEXT('2D SPACE',''
  ) );
#685 = ORIENTED_EDGE('',*,*,#686,.F.);
#686 = EDGE_CURVE('',#687,#664,#689,.T.);
#687 = VERTEX_POINT('',#688);
#688 = CARTESIAN_POINT('',(373.,-10.44269936478,9.487613168724));
#689 = SURFACE_CURVE('',#690,(#695,#702),.PCURVE_S1.);
#690 = CIRCLE('',#691,13.777777777778);
#691 = AXIS2_PLACEMENT_3D('',#692,#693,#694);
#692 = CARTESIAN_POINT('',(373.,0.,0.5));
#693 = DIRECTION('',(1.,0.,2.22044604925E-16));
#694 = DIRECTION('',(2.22044604925E-16,0.,-1.));
#695 = PCURVE('',#477,#696);
#696 = DEFINITIONAL_REPRESENTATION('',(#697),#701);
#697 = LINE('',#698,#699);
#698 = CARTESIAN_POINT('',(-0.,-38.));
#699 = VECTOR('',#700,1.);
#700 = DIRECTION('',(-1.,-0.));
#701 = ( GEOMETRIC_REPRESENTATION_CONTEXT(2) 
PARAMETRIC_REPRESENTATION_CONTEXT() REPRESENTATION_CONTEXT('2D SPACE',''
  ) );
#702 = PCURVE('',#703,#708);
#703 = PLANE('',#704);
#704 = AXIS2_PLACEMENT_3D('',#705,#706,#707);
#705 = CARTESIAN_POINT('',(373.,0.,-1.));
#706 = DIRECTION('',(1.,0.,2.22044604925E-16));
#707 = DIRECTION('',(2.22044604925E-16,0.,-1.));
#708 = DEFINITIONAL_REPRESENTATION('',(#709),#713);
#709 = CIRCLE('',#710,13.777777777778);
#710 = AXIS2_PLACEMENT_2D('',#711,#712);
#711 = CARTESIAN_POINT('',(-1.5,0.));
#712 = DIRECTION('',(1.,0.));
#713 = ( GEOMETRIC_REPRESENTATION_CONTEXT(2) 
PARAMETRIC_REPRESENTATION_CONTEXT() REPRESENTATION_CONTEXT('2D SPACE',''
  ) );
#714 = ORIENTED_EDGE('',*,*,#715,.F.);
#715 = EDGE_CURVE('',#716,#687,#718,.T.);
#716 = VERTEX_POINT('',#717);
#717 = CARTESIAN_POINT('',(380.,-9.341782799026,9.540525102881));
#718 = SURFACE_CURVE('',#719,(#725,#734),.PCURVE_S1.);
#719 = B_SPLINE_CURVE_WITH_KNOTS('',4,(#720,#721,#722,#723,#724),
  .UNSPECIFIED.,.F.,.F.,(5,5),(0.,1.),.PIECEWISE_BEZIER_KNOTS.);
#720 = CARTESIAN_POINT('',(380.,-9.341782799027,9.54052510288));
#721 = CARTESIAN_POINT('',(378.25002140078,-9.617675693197,
    9.535040396291));
#722 = CARTESIAN_POINT('',(376.50002172704,-9.893095988203,
    9.524393607537));
#723 = CARTESIAN_POINT('',(374.75001202744,-10.16810436521,
    9.508584506271));
#724 = CARTESIAN_POINT('',(373.,-10.44269936478,9.487613168724));
#725 = PCURVE('',#477,#726);
#726 = DEFINITIONAL_REPRESENTATION('',(#727),#733);
#727 = B_SPLINE_CURVE_WITH_KNOTS('',4,(#728,#729,#730,#731,#732),
  .UNSPECIFIED.,.F.,.F.,(5,5),(0.,1.),.PIECEWISE_BEZIER_KNOTS.);
#728 = CARTESIAN_POINT('',(-3.943377808835,-45.));
#729 = CARTESIAN_POINT('',(-3.958439664297,-43.25002140078));
#730 = CARTESIAN_POINT('',(-3.973160907217,-41.50002172704));
#731 = CARTESIAN_POINT('',(-3.987584001071,-39.75001202744));
#732 = CARTESIAN_POINT('',(-4.00173872477,-38.));
#733 = ( GEOMETRIC_REPRESENTATION_CONTEXT(2) 
PARAMETRIC_REPRESENTATION_CONTEXT() REPRESENTATION_CONTEXT('2D SPACE',''
  ) );
#734 = PCURVE('',#735,#740);
#735 = CONICAL_SURFACE('',#736,14.8,0.101868384975);
#736 = AXIS2_PLACEMENT_3D('',#737,#738,#739);
#737 = CARTESIAN_POINT('',(373.,0.,-1.));
#738 = DIRECTION('',(-1.,-0.,-2.22044604925E-16));
#739 = DIRECTION('',(2.22044604925E-16,0.,-1.));
#740 = DEFINITIONAL_REPRESENTATION('',(#741),#747);
#741 = B_SPLINE_CURVE_WITH_KNOTS('',4,(#742,#743,#744,#745,#746),
  .UNSPECIFIED.,.F.,.F.,(5,5),(0.,1.),.PIECEWISE_BEZIER_KNOTS.);
#742 = CARTESIAN_POINT('',(-3.866771804796,-7.000000000001));
#743 = CARTESIAN_POINT('',(-3.881689732981,-5.250021400788));
#744 = CARTESIAN_POINT('',(-3.896320435019,-3.500021727043));
#745 = CARTESIAN_POINT('',(-3.910697560383,-1.750012027442));
#746 = CARTESIAN_POINT('',(-3.924844946737,0.));
#747 = ( GEOMETRIC_REPRESENTATION_CONTEXT(2) 
PARAMETRIC_REPRESENTATION_CONTEXT() REPRESENTATION_CONTEXT('2D SPACE',''
  ) );
#748 = ORIENTED_EDGE('',*,*,#749,.F.);
#749 = EDGE_CURVE('',#750,#716,#752,.T.);
#750 = VERTEX_POINT('',#751);
#751 = CARTESIAN_POINT('',(380.,9.341782799027,9.54052510288));
#752 = SURFACE_CURVE('',#753,(#758,#765),.PCURVE_S1.);
#753 = CIRCLE('',#754,13.);
#754 = AXIS2_PLACEMENT_3D('',#755,#756,#757);
#755 = CARTESIAN_POINT('',(380.,0.,0.5));
#756 = DIRECTION('',(1.,-0.,2.22044604925E-16));
#757 = DIRECTION('',(2.22044604925E-16,0.,-1.));
#758 = PCURVE('',#477,#759);
#759 = DEFINITIONAL_REPRESENTATION('',(#760),#764);
#760 = LINE('',#761,#762);
#761 = CARTESIAN_POINT('',(-0.,-45.));
#762 = VECTOR('',#763,1.);
#763 = DIRECTION('',(-1.,-0.));
#764 = ( GEOMETRIC_REPRESENTATION_CONTEXT(2) 
PARAMETRIC_REPRESENTATION_CONTEXT() REPRESENTATION_CONTEXT('2D SPACE',''
  ) );
#765 = PCURVE('',#766,#771);
#766 = PLANE('',#767);
#767 = AXIS2_PLACEMENT_3D('',#768,#769,#770);
#768 = CARTESIAN_POINT('',(380.,0.,0.5));
#769 = DIRECTION('',(1.,0.,2.22044604925E-16));
#770 = DIRECTION('',(2.22044604925E-16,0.,-1.));
#771 = DEFINITIONAL_REPRESENTATION('',(#772),#776);
#772 = CIRCLE('',#773,13.);
#773 = AXIS2_PLACEMENT_2D('',#774,#775);
#774 = CARTESIAN_POINT('',(0.,0.));
#775 = DIRECTION('',(1.,0.));
#776 = ( GEOMETRIC_REPRESENTATION_CONTEXT(2) 
PARAMETRIC_REPRESENTATION_CONTEXT() REPRESENTATION_CONTEXT('2D SPACE',''
  ) );
#777 = ORIENTED_EDGE('',*,*,#778,.F.);
#778 = EDGE_CURVE('',#779,#750,#781,.T.);
#779 = VERTEX_POINT('',#780);
#780 = CARTESIAN_POINT('',(373.,10.442699364781,9.487613168724));
#781 = SURFACE_CURVE('',#782,(#788,#797),.PCURVE_S1.);
#782 = B_SPLINE_CURVE_WITH_KNOTS('',4,(#783,#784,#785,#786,#787),
  .UNSPECIFIED.,.F.,.F.,(5,5),(0.,1.),.PIECEWISE_BEZIER_KNOTS.);
#783 = CARTESIAN_POINT('',(373.,10.442699364781,9.487613168724));
#784 = CARTESIAN_POINT('',(374.7500120276,10.168104365188,9.508584506273
    ));
#785 = CARTESIAN_POINT('',(376.50002172712,9.89309598819,9.524393607538)
  );
#786 = CARTESIAN_POINT('',(378.25002140091,9.617675693177,9.535040396291
    ));
#787 = CARTESIAN_POINT('',(380.,9.341782799027,9.54052510288));
#788 = PCURVE('',#477,#789);
#789 = DEFINITIONAL_REPRESENTATION('',(#790),#796);
#790 = B_SPLINE_CURVE_WITH_KNOTS('',4,(#791,#792,#793,#794,#795),
  .UNSPECIFIED.,.F.,.F.,(5,5),(0.,1.),.PIECEWISE_BEZIER_KNOTS.);
#791 = CARTESIAN_POINT('',(-2.281446582409,-38.));
#792 = CARTESIAN_POINT('',(-2.29560130611,-39.7500120276));
#793 = CARTESIAN_POINT('',(-2.310024399963,-41.50002172712));
#794 = CARTESIAN_POINT('',(-2.324745642883,-43.25002140091));
#795 = CARTESIAN_POINT('',(-2.339807498344,-45.));
#796 = ( GEOMETRIC_REPRESENTATION_CONTEXT(2) 
PARAMETRIC_REPRESENTATION_CONTEXT() REPRESENTATION_CONTEXT('2D SPACE',''
  ) );
#797 = PCURVE('',#735,#798);
#798 = DEFINITIONAL_REPRESENTATION('',(#799),#805);
#799 = B_SPLINE_CURVE_WITH_KNOTS('',4,(#800,#801,#802,#803,#804),
  .UNSPECIFIED.,.F.,.F.,(5,5),(0.,1.),.PIECEWISE_BEZIER_KNOTS.);
#800 = CARTESIAN_POINT('',(-2.358340360443,-4.494688235786E-12));
#801 = CARTESIAN_POINT('',(-2.372487746798,-1.750012027606));
#802 = CARTESIAN_POINT('',(-2.386864872162,-3.500021727126));
#803 = CARTESIAN_POINT('',(-2.401495574199,-5.250021400916));
#804 = CARTESIAN_POINT('',(-2.416413502383,-7.));
#805 = ( GEOMETRIC_REPRESENTATION_CONTEXT(2) 
PARAMETRIC_REPRESENTATION_CONTEXT() REPRESENTATION_CONTEXT('2D SPACE',''
  ) );
#806 = ORIENTED_EDGE('',*,*,#807,.F.);
#807 = EDGE_CURVE('',#664,#779,#808,.T.);
#808 = SURFACE_CURVE('',#809,(#814,#821),.PCURVE_S1.);
#809 = CIRCLE('',#810,13.777777777778);
#810 = AXIS2_PLACEMENT_3D('',#811,#812,#813);
#811 = CARTESIAN_POINT('',(373.,0.,0.5));
#812 = DIRECTION('',(1.,0.,2.22044604925E-16));
#813 = DIRECTION('',(2.22044604925E-16,0.,-1.));
#814 = PCURVE('',#477,#815);
#815 = DEFINITIONAL_REPRESENTATION('',(#816),#820);
#816 = LINE('',#817,#818);
#817 = CARTESIAN_POINT('',(-0.,-38.));
#818 = VECTOR('',#819,1.);
#819 = DIRECTION('',(-1.,-0.));
#820 = ( GEOMETRIC_REPRESENTATION_CONTEXT(2) 
PARAMETRIC_REPRESENTATION_CONTEXT() REPRESENTATION_CONTEXT('2D SPACE',''
  ) );
#821 = PCURVE('',#703,#822);
#822 = DEFINITIONAL_REPRESENTATION('',(#823),#827);
#823 = CIRCLE('',#824,13.777777777778);
#824 = AXIS2_PLACEMENT_2D('',#825,#826);
#825 = CARTESIAN_POINT('',(-1.5,0.));
#826 = DIRECTION('',(1.,0.));
#827 = ( GEOMETRIC_REPRESENTATION_CONTEXT(2) 
PARAMETRIC_REPRESENTATION_CONTEXT() REPRESENTATION_CONTEXT('2D SPACE',''
  ) );
#828 = ORIENTED_EDGE('',*,*,#663,.F.);
#829 = ORIENTED_EDGE('',*,*,#830,.T.);
#830 = EDGE_CURVE('',#640,#450,#831,.T.);
#831 = SURFACE_CURVE('',#832,(#837,#844),.PCURVE_S1.);
#832 = CIRCLE('',#833,18.);
#833 = AXIS2_PLACEMENT_3D('',#834,#835,#836);
#834 = CARTESIAN_POINT('',(335.,0.,0.5));
#835 = DIRECTION('',(1.,-0.,2.22044604925E-16));
#836 = DIRECTION('',(2.22044604925E-16,0.,-1.));
#837 = PCURVE('',#477,#838);
#838 = DEFINITIONAL_REPRESENTATION('',(#839),#843);
#839 = LINE('',#840,#841);
#840 = CARTESIAN_POINT('',(-0.,-0.));
#841 = VECTOR('',#842,1.);
#842 = DIRECTION('',(-1.,-0.));
#843 = ( GEOMETRIC_REPRESENTATION_CONTEXT(2) 
PARAMETRIC_REPRESENTATION_CONTEXT() REPRESENTATION_CONTEXT('2D SPACE',''
  ) );
#844 = PCURVE('',#512,#845);
#845 = DEFINITIONAL_REPRESENTATION('',(#846),#850);
#846 = CIRCLE('',#847,18.);
#847 = AXIS2_PLACEMENT_2D('',#848,#849);
#848 = CARTESIAN_POINT('',(0.,0.));
#849 = DIRECTION('',(1.,0.));
#850 = ( GEOMETRIC_REPRESENTATION_CONTEXT(2) 
PARAMETRIC_REPRESENTATION_CONTEXT() REPRESENTATION_CONTEXT('2D SPACE',''
  ) );
#851 = ORIENTED_EDGE('',*,*,#449,.T.);
#852 = ORIENTED_EDGE('',*,*,#613,.T.);
#853 = ORIENTED_EDGE('',*,*,#571,.T.);
#854 = ADVANCED_FACE('',(#855),#512,.F.);
#855 = FACE_BOUND('',#856,.F.);
#856 = EDGE_LOOP('',(#857,#858,#859,#860));
#857 = ORIENTED_EDGE('',*,*,#639,.T.);
#858 = ORIENTED_EDGE('',*,*,#830,.T.);
#859 = ORIENTED_EDGE('',*,*,#495,.F.);
#860 = ORIENTED_EDGE('',*,*,#547,.F.);
#861 = ADVANCED_FACE('',(#862),#703,.F.);
#862 = FACE_BOUND('',#863,.F.);
#863 = EDGE_LOOP('',(#864,#888,#910,#911));
#864 = ORIENTED_EDGE('',*,*,#865,.T.);
#865 = EDGE_CURVE('',#687,#866,#868,.T.);
#866 = VERTEX_POINT('',#867);
#867 = CARTESIAN_POINT('',(373.,-3.624954525476E-15,-15.8));
#868 = SURFACE_CURVE('',#869,(#874,#881),.PCURVE_S1.);
#869 = CIRCLE('',#870,14.8);
#870 = AXIS2_PLACEMENT_3D('',#871,#872,#873);
#871 = CARTESIAN_POINT('',(373.,0.,-1.));
#872 = DIRECTION('',(1.,-0.,2.22044604925E-16));
#873 = DIRECTION('',(2.22044604925E-16,0.,-1.));
#874 = PCURVE('',#703,#875);
#875 = DEFINITIONAL_REPRESENTATION('',(#876),#880);
#876 = CIRCLE('',#877,14.8);
#877 = AXIS2_PLACEMENT_2D('',#878,#879);
#878 = CARTESIAN_POINT('',(0.,0.));
#879 = DIRECTION('',(1.,0.));
#880 = ( GEOMETRIC_REPRESENTATION_CONTEXT(2) 
PARAMETRIC_REPRESENTATION_CONTEXT() REPRESENTATION_CONTEXT('2D SPACE',''
  ) );
#881 = PCURVE('',#735,#882);
#882 = DEFINITIONAL_REPRESENTATION('',(#883),#887);
#883 = LINE('',#884,#885);
#884 = CARTESIAN_POINT('',(-0.,-0.));
#885 = VECTOR('',#886,1.);
#886 = DIRECTION('',(-1.,-0.));
#887 = ( GEOMETRIC_REPRESENTATION_CONTEXT(2) 
PARAMETRIC_REPRESENTATION_CONTEXT() REPRESENTATION_CONTEXT('2D SPACE',''
  ) );
#888 = ORIENTED_EDGE('',*,*,#889,.T.);
#889 = EDGE_CURVE('',#866,#779,#890,.T.);
#890 = SURFACE_CURVE('',#891,(#896,#903),.PCURVE_S1.);
#891 = CIRCLE('',#892,14.8);
#892 = AXIS2_PLACEMENT_3D('',#893,#894,#895);
#893 = CARTESIAN_POINT('',(373.,0.,-1.));
#894 = DIRECTION('',(1.,-0.,2.22044604925E-16));
#895 = DIRECTION('',(2.22044604925E-16,0.,-1.));
#896 = PCURVE('',#703,#897);
#897 = DEFINITIONAL_REPRESENTATION('',(#898),#902);
#898 = CIRCLE('',#899,14.8);
#899 = AXIS2_PLACEMENT_2D('',#900,#901);
#900 = CARTESIAN_POINT('',(0.,0.));
#901 = DIRECTION('',(1.,0.));
#902 = ( GEOMETRIC_REPRESENTATION_CONTEXT(2) 
PARAMETRIC_REPRESENTATION_CONTEXT() REPRESENTATION_CONTEXT('2D SPACE',''
  ) );
#903 = PCURVE('',#735,#904);
#904 = DEFINITIONAL_REPRESENTATION('',(#905),#909);
#905 = LINE('',#906,#907);
#906 = CARTESIAN_POINT('',(-0.,-0.));
#907 = VECTOR('',#908,1.);
#908 = DIRECTION('',(-1.,-0.));
#909 = ( GEOMETRIC_REPRESENTATION_CONTEXT(2) 
PARAMETRIC_REPRESENTATION_CONTEXT() REPRESENTATION_CONTEXT('2D SPACE',''
  ) );
#910 = ORIENTED_EDGE('',*,*,#807,.F.);
#911 = ORIENTED_EDGE('',*,*,#686,.F.);
#912 = ADVANCED_FACE('',(#913),#735,.T.);
#913 = FACE_BOUND('',#914,.T.);
#914 = EDGE_LOOP('',(#915,#916,#939,#968,#1002,#1031,#1060,#1082,#1083,
    #1084,#1085,#1107));
#915 = ORIENTED_EDGE('',*,*,#865,.T.);
#916 = ORIENTED_EDGE('',*,*,#917,.T.);
#917 = EDGE_CURVE('',#866,#918,#920,.T.);
#918 = VERTEX_POINT('',#919);
#919 = CARTESIAN_POINT('',(411.,-2.673540034405E-15,-11.91555555555));
#920 = SEAM_CURVE('',#921,(#925,#932),.PCURVE_S1.);
#921 = LINE('',#922,#923);
#922 = CARTESIAN_POINT('',(373.,-3.624954525476E-15,-15.8));
#923 = VECTOR('',#924,1.);
#924 = DIRECTION('',(0.99481590142,2.490742801471E-17,0.101692292145));
#925 = PCURVE('',#735,#926);
#926 = DEFINITIONAL_REPRESENTATION('',(#927),#931);
#927 = LINE('',#928,#929);
#928 = CARTESIAN_POINT('',(0.,-0.));
#929 = VECTOR('',#930,1.);
#930 = DIRECTION('',(-0.,-1.));
#931 = ( GEOMETRIC_REPRESENTATION_CONTEXT(2) 
PARAMETRIC_REPRESENTATION_CONTEXT() REPRESENTATION_CONTEXT('2D SPACE',''
  ) );
#932 = PCURVE('',#735,#933);
#933 = DEFINITIONAL_REPRESENTATION('',(#934),#938);
#934 = LINE('',#935,#936);
#935 = CARTESIAN_POINT('',(-6.28318530718,0.));
#936 = VECTOR('',#937,1.);
#937 = DIRECTION('',(-0.,-1.));
#938 = ( GEOMETRIC_REPRESENTATION_CONTEXT(2) 
PARAMETRIC_REPRESENTATION_CONTEXT() REPRESENTATION_CONTEXT('2D SPACE',''
  ) );
#939 = ORIENTED_EDGE('',*,*,#940,.F.);
#940 = EDGE_CURVE('',#941,#918,#943,.T.);
#941 = VERTEX_POINT('',#942);
#942 = CARTESIAN_POINT('',(411.,-9.995229698844,3.386882304527));
#943 = SURFACE_CURVE('',#944,(#949,#956),.PCURVE_S1.);
#944 = CIRCLE('',#945,10.915555555556);
#945 = AXIS2_PLACEMENT_3D('',#946,#947,#948);
#946 = CARTESIAN_POINT('',(411.,0.,-1.));
#947 = DIRECTION('',(1.,0.,2.22044604925E-16));
#948 = DIRECTION('',(2.22044604925E-16,0.,-1.));
#949 = PCURVE('',#735,#950);
#950 = DEFINITIONAL_REPRESENTATION('',(#951),#955);
#951 = LINE('',#952,#953);
#952 = CARTESIAN_POINT('',(-0.,-38.));
#953 = VECTOR('',#954,1.);
#954 = DIRECTION('',(-1.,-0.));
#955 = ( GEOMETRIC_REPRESENTATION_CONTEXT(2) 
PARAMETRIC_REPRESENTATION_CONTEXT() REPRESENTATION_CONTEXT('2D SPACE',''
  ) );
#956 = PCURVE('',#957,#962);
#957 = PLANE('',#958);
#958 = AXIS2_PLACEMENT_3D('',#959,#960,#961);
#959 = CARTESIAN_POINT('',(411.,0.,-2.5));
#960 = DIRECTION('',(1.,0.,2.22044604925E-16));
#961 = DIRECTION('',(2.22044604925E-16,0.,-1.));
#962 = DEFINITIONAL_REPRESENTATION('',(#963),#967);
#963 = CIRCLE('',#964,10.915555555556);
#964 = AXIS2_PLACEMENT_2D('',#965,#966);
#965 = CARTESIAN_POINT('',(-1.5,0.));
#966 = DIRECTION('',(1.,0.));
#967 = ( GEOMETRIC_REPRESENTATION_CONTEXT(2) 
PARAMETRIC_REPRESENTATION_CONTEXT() REPRESENTATION_CONTEXT('2D SPACE',''
  ) );
#968 = ORIENTED_EDGE('',*,*,#969,.F.);
#969 = EDGE_CURVE('',#970,#941,#972,.T.);
#970 = VERTEX_POINT('',#971);
#971 = CARTESIAN_POINT('',(418.,-9.147201386654,3.51317037037));
#972 = SURFACE_CURVE('',#973,(#979,#988),.PCURVE_S1.);
#973 = B_SPLINE_CURVE_WITH_KNOTS('',4,(#974,#975,#976,#977,#978),
  .UNSPECIFIED.,.F.,.F.,(5,5),(0.,1.),.PIECEWISE_BEZIER_KNOTS.);
#974 = CARTESIAN_POINT('',(418.,-9.147201386654,3.51317037037));
#975 = CARTESIAN_POINT('',(416.2499435373,-9.35876169744,3.488695506655)
  );
#976 = CARTESIAN_POINT('',(414.49992388433,-9.570705953558,
    3.459488890827));
#977 = CARTESIAN_POINT('',(412.74994227396,-9.782904197597,
    3.425550987796));
#978 = CARTESIAN_POINT('',(411.,-9.995229698844,3.386882304527));
#979 = PCURVE('',#735,#980);
#980 = DEFINITIONAL_REPRESENTATION('',(#981),#987);
#981 = B_SPLINE_CURVE_WITH_KNOTS('',4,(#982,#983,#984,#985,#986),
  .UNSPECIFIED.,.F.,.F.,(5,5),(0.,1.),.PIECEWISE_BEZIER_KNOTS.);
#982 = CARTESIAN_POINT('',(-4.254040467166,-45.));
#983 = CARTESIAN_POINT('',(-4.265369612047,-43.2499435373));
#984 = CARTESIAN_POINT('',(-4.276601574203,-41.49992388433));
#985 = CARTESIAN_POINT('',(-4.287744753379,-39.74994227396));
#986 = CARTESIAN_POINT('',(-4.298806075337,-38.));
#987 = ( GEOMETRIC_REPRESENTATION_CONTEXT(2) 
PARAMETRIC_REPRESENTATION_CONTEXT() REPRESENTATION_CONTEXT('2D SPACE',''
  ) );
#988 = PCURVE('',#989,#994);
#989 = CONICAL_SURFACE('',#990,11.6,9.306372872442E-02);
#990 = AXIS2_PLACEMENT_3D('',#991,#992,#993);
#991 = CARTESIAN_POINT('',(411.,0.,-2.5));
#992 = DIRECTION('',(-1.,-0.,-2.22044604925E-16));
#993 = DIRECTION('',(2.22044604925E-16,0.,-1.));
#994 = DEFINITIONAL_REPRESENTATION('',(#995),#1001);
#995 = B_SPLINE_CURVE_WITH_KNOTS('',4,(#996,#997,#998,#999,#1000),
  .UNSPECIFIED.,.F.,.F.,(5,5),(0.,1.),.PIECEWISE_BEZIER_KNOTS.);
#996 = CARTESIAN_POINT('',(-4.13084448149,-7.000000000001));
#997 = CARTESIAN_POINT('',(-4.143329091381,-5.249943537302));
#998 = CARTESIAN_POINT('',(-4.155697409599,-3.49992388433));
#999 = CARTESIAN_POINT('',(-4.167958459695,-1.749942273963));
#1000 = CARTESIAN_POINT('',(-4.180119856897,0.));
#1001 = ( GEOMETRIC_REPRESENTATION_CONTEXT(2) 
PARAMETRIC_REPRESENTATION_CONTEXT() REPRESENTATION_CONTEXT('2D SPACE',''
  ) );
#1002 = ORIENTED_EDGE('',*,*,#1003,.F.);
#1003 = EDGE_CURVE('',#1004,#970,#1006,.T.);
#1004 = VERTEX_POINT('',#1005);
#1005 = CARTESIAN_POINT('',(418.,9.147201386654,3.51317037037));
#1006 = SURFACE_CURVE('',#1007,(#1012,#1019),.PCURVE_S1.);
#1007 = CIRCLE('',#1008,10.2);
#1008 = AXIS2_PLACEMENT_3D('',#1009,#1010,#1011);
#1009 = CARTESIAN_POINT('',(418.,0.,-1.));
#1010 = DIRECTION('',(1.,-0.,2.22044604925E-16));
#1011 = DIRECTION('',(2.22044604925E-16,0.,-1.));
#1012 = PCURVE('',#735,#1013);
#1013 = DEFINITIONAL_REPRESENTATION('',(#1014),#1018);
#1014 = LINE('',#1015,#1016);
#1015 = CARTESIAN_POINT('',(-0.,-45.));
#1016 = VECTOR('',#1017,1.);
#1017 = DIRECTION('',(-1.,-0.));
#1018 = ( GEOMETRIC_REPRESENTATION_CONTEXT(2) 
PARAMETRIC_REPRESENTATION_CONTEXT() REPRESENTATION_CONTEXT('2D SPACE',''
  ) );
#1019 = PCURVE('',#1020,#1025);
#1020 = PLANE('',#1021);
#1021 = AXIS2_PLACEMENT_3D('',#1022,#1023,#1024);
#1022 = CARTESIAN_POINT('',(418.,0.,-1.));
#1023 = DIRECTION('',(1.,0.,2.22044604925E-16));
#1024 = DIRECTION('',(2.22044604925E-16,0.,-1.));
#1025 = DEFINITIONAL_REPRESENTATION('',(#1026),#1030);
#1026 = CIRCLE('',#1027,10.2);
#1027 = AXIS2_PLACEMENT_2D('',#1028,#1029);
#1028 = CARTESIAN_POINT('',(0.,0.));
#1029 = DIRECTION('',(1.,0.));
#1030 = ( GEOMETRIC_REPRESENTATION_CONTEXT(2) 
PARAMETRIC_REPRESENTATION_CONTEXT() REPRESENTATION_CONTEXT('2D SPACE',''
  ) );
#1031 = ORIENTED_EDGE('',*,*,#1032,.F.);
#1032 = EDGE_CURVE('',#1033,#1004,#1035,.T.);
#1033 = VERTEX_POINT('',#1034);
#1034 = CARTESIAN_POINT('',(411.,9.995229698844,3.386882304527));
#1035 = SURFACE_CURVE('',#1036,(#1042,#1051),.PCURVE_S1.);
#1036 = B_SPLINE_CURVE_WITH_KNOTS('',4,(#1037,#1038,#1039,#1040,#1041),
  .UNSPECIFIED.,.F.,.F.,(5,5),(0.,1.),.PIECEWISE_BEZIER_KNOTS.);
#1037 = CARTESIAN_POINT('',(411.,9.995229698843,3.386882304527));
#1038 = CARTESIAN_POINT('',(412.7499431111,9.782904096024,3.425551006294
    ));
#1039 = CARTESIAN_POINT('',(414.49992415243,9.570705924438,
    3.459488894267));
#1040 = CARTESIAN_POINT('',(416.24994373342,9.358761673731,
    3.488695509398));
#1041 = CARTESIAN_POINT('',(418.,9.147201386654,3.51317037037));
#1042 = PCURVE('',#735,#1043);
#1043 = DEFINITIONAL_REPRESENTATION('',(#1044),#1050);
#1044 = B_SPLINE_CURVE_WITH_KNOTS('',4,(#1045,#1046,#1047,#1048,#1049),
  .UNSPECIFIED.,.F.,.F.,(5,5),(0.,1.),.PIECEWISE_BEZIER_KNOTS.);
#1045 = CARTESIAN_POINT('',(-1.984379231842,-38.));
#1046 = CARTESIAN_POINT('',(-1.995440559093,-39.7499431111));
#1047 = CARTESIAN_POINT('',(-2.00658373624,-41.49992415243));
#1048 = CARTESIAN_POINT('',(-2.017815696402,-43.24994373342));
#1049 = CARTESIAN_POINT('',(-2.029144840014,-45.));
#1050 = ( GEOMETRIC_REPRESENTATION_CONTEXT(2) 
PARAMETRIC_REPRESENTATION_CONTEXT() REPRESENTATION_CONTEXT('2D SPACE',''
  ) );
#1051 = PCURVE('',#989,#1052);
#1052 = DEFINITIONAL_REPRESENTATION('',(#1053),#1059);
#1053 = B_SPLINE_CURVE_WITH_KNOTS('',4,(#1054,#1055,#1056,#1057,#1058),
  .UNSPECIFIED.,.F.,.F.,(5,5),(0.,1.),.PIECEWISE_BEZIER_KNOTS.);
#1054 = CARTESIAN_POINT('',(-2.103065450282,-4.775524353826E-12));
#1055 = CARTESIAN_POINT('',(-2.115226853302,-1.749943111108));
#1056 = CARTESIAN_POINT('',(-2.127487900752,-3.499924152431));
#1057 = CARTESIAN_POINT('',(-2.139856217198,-5.249943733422));
#1058 = CARTESIAN_POINT('',(-2.15234082569,-7.));
#1059 = ( GEOMETRIC_REPRESENTATION_CONTEXT(2) 
PARAMETRIC_REPRESENTATION_CONTEXT() REPRESENTATION_CONTEXT('2D SPACE',''
  ) );
#1060 = ORIENTED_EDGE('',*,*,#1061,.F.);
#1061 = EDGE_CURVE('',#918,#1033,#1062,.T.);
#1062 = SURFACE_CURVE('',#1063,(#1068,#1075),.PCURVE_S1.);
#1063 = CIRCLE('',#1064,10.915555555556);
#1064 = AXIS2_PLACEMENT_3D('',#1065,#1066,#1067);
#1065 = CARTESIAN_POINT('',(411.,0.,-1.));
#1066 = DIRECTION('',(1.,0.,2.22044604925E-16));
#1067 = DIRECTION('',(2.22044604925E-16,0.,-1.));
#1068 = PCURVE('',#735,#1069);
#1069 = DEFINITIONAL_REPRESENTATION('',(#1070),#1074);
#1070 = LINE('',#1071,#1072);
#1071 = CARTESIAN_POINT('',(-0.,-38.));
#1072 = VECTOR('',#1073,1.);
#1073 = DIRECTION('',(-1.,-0.));
#1074 = ( GEOMETRIC_REPRESENTATION_CONTEXT(2) 
PARAMETRIC_REPRESENTATION_CONTEXT() REPRESENTATION_CONTEXT('2D SPACE',''
  ) );
#1075 = PCURVE('',#957,#1076);
#1076 = DEFINITIONAL_REPRESENTATION('',(#1077),#1081);
#1077 = CIRCLE('',#1078,10.915555555556);
#1078 = AXIS2_PLACEMENT_2D('',#1079,#1080);
#1079 = CARTESIAN_POINT('',(-1.5,0.));
#1080 = DIRECTION('',(1.,0.));
#1081 = ( GEOMETRIC_REPRESENTATION_CONTEXT(2) 
PARAMETRIC_REPRESENTATION_CONTEXT() REPRESENTATION_CONTEXT('2D SPACE',''
  ) );
#1082 = ORIENTED_EDGE('',*,*,#917,.F.);
#1083 = ORIENTED_EDGE('',*,*,#889,.T.);
#1084 = ORIENTED_EDGE('',*,*,#778,.T.);
#1085 = ORIENTED_EDGE('',*,*,#1086,.T.);
#1086 = EDGE_CURVE('',#750,#716,#1087,.T.);
#1087 = SURFACE_CURVE('',#1088,(#1093,#1100),.PCURVE_S1.);
#1088 = CIRCLE('',#1089,14.084444444444);
#1089 = AXIS2_PLACEMENT_3D('',#1090,#1091,#1092);
#1090 = CARTESIAN_POINT('',(380.,0.,-1.));
#1091 = DIRECTION('',(1.,0.,2.22044604925E-16));
#1092 = DIRECTION('',(2.22044604925E-16,0.,-1.));
#1093 = PCURVE('',#735,#1094);
#1094 = DEFINITIONAL_REPRESENTATION('',(#1095),#1099);
#1095 = LINE('',#1096,#1097);
#1096 = CARTESIAN_POINT('',(-0.,-7.));
#1097 = VECTOR('',#1098,1.);
#1098 = DIRECTION('',(-1.,-0.));
#1099 = ( GEOMETRIC_REPRESENTATION_CONTEXT(2) 
PARAMETRIC_REPRESENTATION_CONTEXT() REPRESENTATION_CONTEXT('2D SPACE',''
  ) );
#1100 = PCURVE('',#766,#1101);
#1101 = DEFINITIONAL_REPRESENTATION('',(#1102),#1106);
#1102 = CIRCLE('',#1103,14.084444444444);
#1103 = AXIS2_PLACEMENT_2D('',#1104,#1105);
#1104 = CARTESIAN_POINT('',(1.5,0.));
#1105 = DIRECTION('',(1.,0.));
#1106 = ( GEOMETRIC_REPRESENTATION_CONTEXT(2) 
PARAMETRIC_REPRESENTATION_CONTEXT() REPRESENTATION_CONTEXT('2D SPACE',''
  ) );
#1107 = ORIENTED_EDGE('',*,*,#715,.T.);
#1108 = ADVANCED_FACE('',(#1109),#766,.T.);
#1109 = FACE_BOUND('',#1110,.T.);
#1110 = EDGE_LOOP('',(#1111,#1112));
#1111 = ORIENTED_EDGE('',*,*,#1086,.F.);
#1112 = ORIENTED_EDGE('',*,*,#749,.T.);
#1113 = ADVANCED_FACE('',(#1114),#957,.F.);
#1114 = FACE_BOUND('',#1115,.F.);
#1115 = EDGE_LOOP('',(#1116,#1140,#1162,#1163));
#1116 = ORIENTED_EDGE('',*,*,#1117,.T.);
#1117 = EDGE_CURVE('',#941,#1118,#1120,.T.);
#1118 = VERTEX_POINT('',#1119);
#1119 = CARTESIAN_POINT('',(411.,-2.841180574022E-15,-14.1));
#1120 = SURFACE_CURVE('',#1121,(#1126,#1133),.PCURVE_S1.);
#1121 = CIRCLE('',#1122,11.6);
#1122 = AXIS2_PLACEMENT_3D('',#1123,#1124,#1125);
#1123 = CARTESIAN_POINT('',(411.,0.,-2.5));
#1124 = DIRECTION('',(1.,-0.,2.22044604925E-16));
#1125 = DIRECTION('',(2.22044604925E-16,0.,-1.));
#1126 = PCURVE('',#957,#1127);
#1127 = DEFINITIONAL_REPRESENTATION('',(#1128),#1132);
#1128 = CIRCLE('',#1129,11.6);
#1129 = AXIS2_PLACEMENT_2D('',#1130,#1131);
#1130 = CARTESIAN_POINT('',(0.,0.));
#1131 = DIRECTION('',(1.,0.));
#1132 = ( GEOMETRIC_REPRESENTATION_CONTEXT(2) 
PARAMETRIC_REPRESENTATION_CONTEXT() REPRESENTATION_CONTEXT('2D SPACE',''
  ) );
#1133 = PCURVE('',#989,#1134);
#1134 = DEFINITIONAL_REPRESENTATION('',(#1135),#1139);
#1135 = LINE('',#1136,#1137);
#1136 = CARTESIAN_POINT('',(-0.,-0.));
#1137 = VECTOR('',#1138,1.);
#1138 = DIRECTION('',(-1.,-0.));
#1139 = ( GEOMETRIC_REPRESENTATION_CONTEXT(2) 
PARAMETRIC_REPRESENTATION_CONTEXT() REPRESENTATION_CONTEXT('2D SPACE',''
  ) );
#1140 = ORIENTED_EDGE('',*,*,#1141,.T.);
#1141 = EDGE_CURVE('',#1118,#1033,#1142,.T.);
#1142 = SURFACE_CURVE('',#1143,(#1148,#1155),.PCURVE_S1.);
#1143 = CIRCLE('',#1144,11.6);
#1144 = AXIS2_PLACEMENT_3D('',#1145,#1146,#1147);
#1145 = CARTESIAN_POINT('',(411.,0.,-2.5));
#1146 = DIRECTION('',(1.,-0.,2.22044604925E-16));
#1147 = DIRECTION('',(2.22044604925E-16,0.,-1.));
#1148 = PCURVE('',#957,#1149);
#1149 = DEFINITIONAL_REPRESENTATION('',(#1150),#1154);
#1150 = CIRCLE('',#1151,11.6);
#1151 = AXIS2_PLACEMENT_2D('',#1152,#1153);
#1152 = CARTESIAN_POINT('',(0.,0.));
#1153 = DIRECTION('',(1.,0.));
#1154 = ( GEOMETRIC_REPRESENTATION_CONTEXT(2) 
PARAMETRIC_REPRESENTATION_CONTEXT() REPRESENTATION_CONTEXT('2D SPACE',''
  ) );
#1155 = PCURVE('',#989,#1156);
#1156 = DEFINITIONAL_REPRESENTATION('',(#1157),#1161);
#1157 = LINE('',#1158,#1159);
#1158 = CARTESIAN_POINT('',(-0.,-0.));
#1159 = VECTOR('',#1160,1.);
#1160 = DIRECTION('',(-1.,-0.));
#1161 = ( GEOMETRIC_REPRESENTATION_CONTEXT(2) 
PARAMETRIC_REPRESENTATION_CONTEXT() REPRESENTATION_CONTEXT('2D SPACE',''
  ) );
#1162 = ORIENTED_EDGE('',*,*,#1061,.F.);
#1163 = ORIENTED_EDGE('',*,*,#940,.F.);
#1164 = ADVANCED_FACE('',(#1165),#989,.T.);
#1165 = FACE_BOUND('',#1166,.T.);
#1166 = EDGE_LOOP('',(#1167,#1168,#1191,#1220,#1299,#1328,#1393,#1415,
    #1416,#1417,#1418,#1440));
#1167 = ORIENTED_EDGE('',*,*,#1117,.T.);
#1168 = ORIENTED_EDGE('',*,*,#1169,.T.);
#1169 = EDGE_CURVE('',#1118,#1170,#1172,.T.);
#1170 = VERTEX_POINT('',#1171);
#1171 = CARTESIAN_POINT('',(449.,-1.972497777827E-15,-10.55333333333));
#1172 = SEAM_CURVE('',#1173,(#1177,#1184),.PCURVE_S1.);
#1173 = LINE('',#1174,#1175);
#1174 = CARTESIAN_POINT('',(411.,-2.841180574022E-15,-14.1));
#1175 = VECTOR('',#1176,1.);
#1176 = DIRECTION('',(0.995672695731,2.276115109008E-17,
    9.29294516016E-02));
#1177 = PCURVE('',#989,#1178);
#1178 = DEFINITIONAL_REPRESENTATION('',(#1179),#1183);
#1179 = LINE('',#1180,#1181);
#1180 = CARTESIAN_POINT('',(0.,-0.));
#1181 = VECTOR('',#1182,1.);
#1182 = DIRECTION('',(-0.,-1.));
#1183 = ( GEOMETRIC_REPRESENTATION_CONTEXT(2) 
PARAMETRIC_REPRESENTATION_CONTEXT() REPRESENTATION_CONTEXT('2D SPACE',''
  ) );
#1184 = PCURVE('',#989,#1185);
#1185 = DEFINITIONAL_REPRESENTATION('',(#1186),#1190);
#1186 = LINE('',#1187,#1188);
#1187 = CARTESIAN_POINT('',(-6.28318530718,0.));
#1188 = VECTOR('',#1189,1.);
#1189 = DIRECTION('',(-0.,-1.));
#1190 = ( GEOMETRIC_REPRESENTATION_CONTEXT(2) 
PARAMETRIC_REPRESENTATION_CONTEXT() REPRESENTATION_CONTEXT('2D SPACE',''
  ) );
#1191 = ORIENTED_EDGE('',*,*,#1192,.F.);
#1192 = EDGE_CURVE('',#1193,#1170,#1195,.T.);
#1193 = VERTEX_POINT('',#1194);
#1194 = CARTESIAN_POINT('',(449.,-6.58843518816,2.131274074074));
#1195 = SURFACE_CURVE('',#1196,(#1201,#1208),.PCURVE_S1.);
#1196 = CIRCLE('',#1197,8.053333333333);
#1197 = AXIS2_PLACEMENT_3D('',#1198,#1199,#1200);
#1198 = CARTESIAN_POINT('',(449.,0.,-2.5));
#1199 = DIRECTION('',(1.,0.,2.22044604925E-16));
#1200 = DIRECTION('',(2.22044604925E-16,0.,-1.));
#1201 = PCURVE('',#989,#1202);
#1202 = DEFINITIONAL_REPRESENTATION('',(#1203),#1207);
#1203 = LINE('',#1204,#1205);
#1204 = CARTESIAN_POINT('',(-0.,-38.));
#1205 = VECTOR('',#1206,1.);
#1206 = DIRECTION('',(-1.,-0.));
#1207 = ( GEOMETRIC_REPRESENTATION_CONTEXT(2) 
PARAMETRIC_REPRESENTATION_CONTEXT() REPRESENTATION_CONTEXT('2D SPACE',''
  ) );
#1208 = PCURVE('',#1209,#1214);
#1209 = PLANE('',#1210);
#1210 = AXIS2_PLACEMENT_3D('',#1211,#1212,#1213);
#1211 = CARTESIAN_POINT('',(449.,0.,-4.));
#1212 = DIRECTION('',(1.,0.,2.22044604925E-16));
#1213 = DIRECTION('',(2.22044604925E-16,0.,-1.));
#1214 = DEFINITIONAL_REPRESENTATION('',(#1215),#1219);
#1215 = CIRCLE('',#1216,8.053333333333);
#1216 = AXIS2_PLACEMENT_2D('',#1217,#1218);
#1217 = CARTESIAN_POINT('',(-1.5,0.));
#1218 = DIRECTION('',(1.,0.));
#1219 = ( GEOMETRIC_REPRESENTATION_CONTEXT(2) 
PARAMETRIC_REPRESENTATION_CONTEXT() REPRESENTATION_CONTEXT('2D SPACE',''
  ) );
#1220 = ORIENTED_EDGE('',*,*,#1221,.F.);
#1221 = EDGE_CURVE('',#1222,#1193,#1224,.T.);
#1222 = VERTEX_POINT('',#1223);
#1223 = CARTESIAN_POINT('',(456.,-4.097134377034,3.662263374486));
#1224 = SURFACE_CURVE('',#1225,(#1246,#1270),.PCURVE_S1.);
#1225 = B_SPLINE_CURVE_WITH_KNOTS('',7,(#1226,#1227,#1228,#1229,#1230,
    #1231,#1232,#1233,#1234,#1235,#1236,#1237,#1238,#1239,#1240,#1241,
    #1242,#1243,#1244,#1245),.UNSPECIFIED.,.F.,.F.,(8,6,6,8),(0.,
    0.400662996211,0.892318468996,1.),.UNSPECIFIED.);
#1226 = CARTESIAN_POINT('',(456.,-4.097134377034,3.662263374486));
#1227 = CARTESIAN_POINT('',(455.60495410426,-4.284341689479,
    3.582070683354));
#1228 = CARTESIAN_POINT('',(455.20845082318,-4.462045989218,
    3.500764549585));
#1229 = CARTESIAN_POINT('',(454.8108182441,-4.631842996886,
    3.418400723452));
#1230 = CARTESIAN_POINT('',(454.41227445917,-4.794741034461,
    3.335016600884));
#1231 = CARTESIAN_POINT('',(454.0129808333,-4.951530454927,
    3.250639990347));
#1232 = CARTESIAN_POINT('',(453.61304675876,-5.102818841946,
    3.165289326763));
#1233 = CARTESIAN_POINT('',(452.72107863118,-5.428619375423,
    2.973058540278));
#1234 = CARTESIAN_POINT('',(452.22878093888,-5.600593724092,
    2.865696558852));
#1235 = CARTESIAN_POINT('',(451.7358018908,-5.765942380718,
    2.756914613661));
#1236 = CARTESIAN_POINT('',(451.24225498978,-5.925314701421,
    2.646731744715));
#1237 = CARTESIAN_POINT('',(450.74822626994,-6.07921135311,
    2.535162495844));
#1238 = CARTESIAN_POINT('',(450.25378118336,-6.2280453662,2.42221778271)
  );
#1239 = CARTESIAN_POINT('',(449.65059176178,-6.403712297136,
    2.28286807661));
#1240 = CARTESIAN_POINT('',(449.54220053936,-6.435047103078,
    2.257765846338));
#1241 = CARTESIAN_POINT('',(449.4337923374,-6.466158531057,
    2.232598126881));
#1242 = CARTESIAN_POINT('',(449.32536768776,-6.497049929641,
    2.207365007114));
#1243 = CARTESIAN_POINT('',(449.21692709755,-6.527724497629,
    2.182066571872));
#1244 = CARTESIAN_POINT('',(449.10847104911,-6.558185284049,
    2.156702901942));
#1245 = CARTESIAN_POINT('',(449.,-6.58843518816,2.131274074074));
#1246 = PCURVE('',#989,#1247);
#1247 = DEFINITIONAL_REPRESENTATION('',(#1248),#1269);
#1248 = B_SPLINE_CURVE_WITH_KNOTS('',7,(#1249,#1250,#1251,#1252,#1253,
    #1254,#1255,#1256,#1257,#1258,#1259,#1260,#1261,#1262,#1263,#1264,
    #1265,#1266,#1267,#1268),.UNSPECIFIED.,.F.,.F.,(8,6,6,8),(0.,
    0.400662996211,0.892318468996,1.),.UNSPECIFIED.);
#1249 = CARTESIAN_POINT('',(-3.728353792134,-45.));
#1250 = CARTESIAN_POINT('',(-3.75542064744,-44.60495410426));
#1251 = CARTESIAN_POINT('',(-3.781186746436,-44.20845082318));
#1252 = CARTESIAN_POINT('',(-3.805884932169,-43.8108182441));
#1253 = CARTESIAN_POINT('',(-3.829663778456,-43.41227445917));
#1254 = CARTESIAN_POINT('',(-3.852640497758,-43.0129808333));
#1255 = CARTESIAN_POINT('',(-3.874906046785,-42.61304675876));
#1256 = CARTESIAN_POINT('',(-3.923078591954,-41.72107863118));
#1257 = CARTESIAN_POINT('',(-3.948662852757,-41.22878093888));
#1258 = CARTESIAN_POINT('',(-3.973426697458,-40.7358018908));
#1259 = CARTESIAN_POINT('',(-3.997470136907,-40.24225498978));
#1260 = CARTESIAN_POINT('',(-4.020871777359,-39.74822626994));
#1261 = CARTESIAN_POINT('',(-4.043697627141,-39.25378118336));
#1262 = CARTESIAN_POINT('',(-4.070887525914,-38.65059176178));
#1263 = CARTESIAN_POINT('',(-4.075747670413,-38.54220053936));
#1264 = CARTESIAN_POINT('',(-4.080583384392,-38.4337923374));
#1265 = CARTESIAN_POINT('',(-4.085395219308,-38.32536768776));
#1266 = CARTESIAN_POINT('',(-4.090183705158,-38.21692709755));
#1267 = CARTESIAN_POINT('',(-4.09494935048,-38.10847104911));
#1268 = CARTESIAN_POINT('',(-4.099692642353,-38.));
#1269 = ( GEOMETRIC_REPRESENTATION_CONTEXT(2) 
PARAMETRIC_REPRESENTATION_CONTEXT() REPRESENTATION_CONTEXT('2D SPACE',''
  ) );
#1270 = PCURVE('',#1271,#1276);
#1271 = CONICAL_SURFACE('',#1272,9.,4.441521524691E-02);
#1272 = AXIS2_PLACEMENT_3D('',#1273,#1274,#1275);
#1273 = CARTESIAN_POINT('',(449.,0.,-4.));
#1274 = DIRECTION('',(-1.,-0.,-2.22044604925E-16));
#1275 = DIRECTION('',(2.22044604925E-16,0.,-1.));
#1276 = DEFINITIONAL_REPRESENTATION('',(#1277),#1298);
#1277 = B_SPLINE_CURVE_WITH_KNOTS('',7,(#1278,#1279,#1280,#1281,#1282,
    #1283,#1284,#1285,#1286,#1287,#1288,#1289,#1290,#1291,#1292,#1293,
    #1294,#1295,#1296,#1297),.UNSPECIFIED.,.F.,.F.,(8,6,6,8),(0.,
    0.400662996211,0.892318468996,1.),.UNSPECIFIED.);
#1278 = CARTESIAN_POINT('',(-3.632625787134,-7.));
#1279 = CARTESIAN_POINT('',(-3.655977666894,-6.604954104262));
#1280 = CARTESIAN_POINT('',(-3.678315401452,-6.208450823185));
#1281 = CARTESIAN_POINT('',(-3.69982655203,-5.810818244104));
#1282 = CARTESIAN_POINT('',(-3.720630140296,-5.412274459172));
#1283 = CARTESIAN_POINT('',(-3.74081988313,-5.012980833304));
#1284 = CARTESIAN_POINT('',(-3.760468328834,-4.613046758765));
#1285 = CARTESIAN_POINT('',(-3.803156452329,-3.721078631183));
#1286 = CARTESIAN_POINT('',(-3.825951701734,-3.22878093888));
#1287 = CARTESIAN_POINT('',(-3.848131295459,-2.7358018908));
#1288 = CARTESIAN_POINT('',(-3.869774482878,-2.242254989785));
#1289 = CARTESIAN_POINT('',(-3.890943354166,-1.748226269942));
#1290 = CARTESIAN_POINT('',(-3.911689985609,-1.253781183366));
#1291 = CARTESIAN_POINT('',(-3.936518311557,-0.650591761787));
#1292 = CARTESIAN_POINT('',(-3.940960966689,-0.542200539366));
#1293 = CARTESIAN_POINT('',(-3.945385878446,-0.433792337401));
#1294 = CARTESIAN_POINT('',(-3.949793480722,-0.325367687763));
#1295 = CARTESIAN_POINT('',(-3.954184190355,-0.216927097554));
#1296 = CARTESIAN_POINT('',(-3.958558407126,-0.10847104911));
#1297 = CARTESIAN_POINT('',(-3.962916513758,0.));
#1298 = ( GEOMETRIC_REPRESENTATION_CONTEXT(2) 
PARAMETRIC_REPRESENTATION_CONTEXT() REPRESENTATION_CONTEXT('2D SPACE',''
  ) );
#1299 = ORIENTED_EDGE('',*,*,#1300,.F.);
#1300 = EDGE_CURVE('',#1301,#1222,#1303,.T.);
#1301 = VERTEX_POINT('',#1302);
#1302 = CARTESIAN_POINT('',(456.,4.097134377034,3.662263374486));
#1303 = SURFACE_CURVE('',#1304,(#1309,#1316),.PCURVE_S1.);
#1304 = CIRCLE('',#1305,7.4);
#1305 = AXIS2_PLACEMENT_3D('',#1306,#1307,#1308);
#1306 = CARTESIAN_POINT('',(456.,0.,-2.5));
#1307 = DIRECTION('',(1.,-0.,2.22044604925E-16));
#1308 = DIRECTION('',(2.22044604925E-16,0.,-1.));
#1309 = PCURVE('',#989,#1310);
#1310 = DEFINITIONAL_REPRESENTATION('',(#1311),#1315);
#1311 = LINE('',#1312,#1313);
#1312 = CARTESIAN_POINT('',(-0.,-45.));
#1313 = VECTOR('',#1314,1.);
#1314 = DIRECTION('',(-1.,-0.));
#1315 = ( GEOMETRIC_REPRESENTATION_CONTEXT(2) 
PARAMETRIC_REPRESENTATION_CONTEXT() REPRESENTATION_CONTEXT('2D SPACE',''
  ) );
#1316 = PCURVE('',#1317,#1322);
#1317 = PLANE('',#1318);
#1318 = AXIS2_PLACEMENT_3D('',#1319,#1320,#1321);
#1319 = CARTESIAN_POINT('',(456.,0.,-2.5));
#1320 = DIRECTION('',(1.,0.,2.22044604925E-16));
#1321 = DIRECTION('',(2.22044604925E-16,0.,-1.));
#1322 = DEFINITIONAL_REPRESENTATION('',(#1323),#1327);
#1323 = CIRCLE('',#1324,7.4);
#1324 = AXIS2_PLACEMENT_2D('',#1325,#1326);
#1325 = CARTESIAN_POINT('',(0.,0.));
#1326 = DIRECTION('',(1.,0.));
#1327 = ( GEOMETRIC_REPRESENTATION_CONTEXT(2) 
PARAMETRIC_REPRESENTATION_CONTEXT() REPRESENTATION_CONTEXT('2D SPACE',''
  ) );
#1328 = ORIENTED_EDGE('',*,*,#1329,.F.);
#1329 = EDGE_CURVE('',#1330,#1301,#1332,.T.);
#1330 = VERTEX_POINT('',#1331);
#1331 = CARTESIAN_POINT('',(449.,6.58843518816,2.131274074074));
#1332 = SURFACE_CURVE('',#1333,(#1351,#1372),.PCURVE_S1.);
#1333 = B_SPLINE_CURVE_WITH_KNOTS('',6,(#1334,#1335,#1336,#1337,#1338,
    #1339,#1340,#1341,#1342,#1343,#1344,#1345,#1346,#1347,#1348,#1349,
    #1350),.UNSPECIFIED.,.F.,.F.,(7,5,5,7),(0.,0.46698613296,
    0.866755624331,1.),.UNSPECIFIED.);
#1334 = CARTESIAN_POINT('',(449.,6.58843518816,2.131274074074));
#1335 = CARTESIAN_POINT('',(449.54880962086,6.43538570129,2.25993131023)
  );
#1336 = CARTESIAN_POINT('',(450.09722083677,6.276784545888,
    2.386872134326));
#1337 = CARTESIAN_POINT('',(450.64517451225,6.112216045842,
    2.512087089845));
#1338 = CARTESIAN_POINT('',(451.19258498841,5.941148895118,
    2.635561715198));
#1339 = CARTESIAN_POINT('',(451.73933724269,5.762908434573,
    2.757276648544));
#1340 = CARTESIAN_POINT('',(452.75261558253,5.416891046895,
    2.979870621924));
#1341 = CARTESIAN_POINT('',(453.21934984233,5.251303703015,
    3.081224458699));
#1342 = CARTESIAN_POINT('',(453.6853781444,5.079086862393,3.181252029998
    ));
#1343 = CARTESIAN_POINT('',(454.15055029969,4.899405095584,
    3.279927783498));
#1344 = CARTESIAN_POINT('',(454.61465444711,4.71119964952,3.37721553802)
  );
#1345 = CARTESIAN_POINT('',(455.2315706532,4.4465413996,3.505002985574)
  );
#1346 = CARTESIAN_POINT('',(455.38563188112,4.379238295596,
    3.536786924436));
#1347 = CARTESIAN_POINT('',(455.53952269731,4.310726380993,
    3.568407895413));
#1348 = CARTESIAN_POINT('',(455.69322745934,4.240931723579,
    3.599863218336));
#1349 = CARTESIAN_POINT('',(455.84672739422,4.169768349209,
    3.631149666264));
#1350 = CARTESIAN_POINT('',(456.,4.097134377034,3.662263374486));
#1351 = PCURVE('',#989,#1352);
#1352 = DEFINITIONAL_REPRESENTATION('',(#1353),#1371);
#1353 = B_SPLINE_CURVE_WITH_KNOTS('',6,(#1354,#1355,#1356,#1357,#1358,
    #1359,#1360,#1361,#1362,#1363,#1364,#1365,#1366,#1367,#1368,#1369,
    #1370),.UNSPECIFIED.,.F.,.F.,(7,5,5,7),(0.,0.46698613296,
    0.866755624331,1.),.UNSPECIFIED.);
#1354 = CARTESIAN_POINT('',(-2.183492664826,-38.));
#1355 = CARTESIAN_POINT('',(-2.207491365271,-38.54880962086));
#1356 = CARTESIAN_POINT('',(-2.232078495547,-39.09722083677));
#1357 = CARTESIAN_POINT('',(-2.257323875412,-39.64517451225));
#1358 = CARTESIAN_POINT('',(-2.283313825626,-40.19258498841));
#1359 = CARTESIAN_POINT('',(-2.310155285525,-40.73933724269));
#1360 = CARTESIAN_POINT('',(-2.361843682025,-41.75261558253));
#1361 = CARTESIAN_POINT('',(-2.386421165073,-42.21934984233));
#1362 = CARTESIAN_POINT('',(-2.411833607067,-42.6853781444));
#1363 = CARTESIAN_POINT('',(-2.438207347862,-43.15055029969));
#1364 = CARTESIAN_POINT('',(-2.465700917783,-43.61465444711));
#1365 = CARTESIAN_POINT('',(-2.504198644706,-44.2315706532));
#1366 = CARTESIAN_POINT('',(-2.513975712836,-44.38563188112));
#1367 = CARTESIAN_POINT('',(-2.523915757168,-44.53952269731));
#1368 = CARTESIAN_POINT('',(-2.53402963493,-44.69322745934));
#1369 = CARTESIAN_POINT('',(-2.54432993159,-44.84672739422));
#1370 = CARTESIAN_POINT('',(-2.554831515046,-45.));
#1371 = ( GEOMETRIC_REPRESENTATION_CONTEXT(2) 
PARAMETRIC_REPRESENTATION_CONTEXT() REPRESENTATION_CONTEXT('2D SPACE',''
  ) );
#1372 = PCURVE('',#1271,#1373);
#1373 = DEFINITIONAL_REPRESENTATION('',(#1374),#1392);
#1374 = B_SPLINE_CURVE_WITH_KNOTS('',6,(#1375,#1376,#1377,#1378,#1379,
    #1380,#1381,#1382,#1383,#1384,#1385,#1386,#1387,#1388,#1389,#1390,
    #1391),.UNSPECIFIED.,.F.,.F.,(7,5,5,7),(0.,0.46698613296,
    0.866755624331,1.),.UNSPECIFIED.);
#1375 = CARTESIAN_POINT('',(-2.320268793422,-1.137778880475E-13));
#1376 = CARTESIAN_POINT('',(-2.342318647901,-0.548809620861));
#1377 = CARTESIAN_POINT('',(-2.364792555804,-1.097220836776));
#1378 = CARTESIAN_POINT('',(-2.387745414207,-1.645174512251));
#1379 = CARTESIAN_POINT('',(-2.411245191889,-2.192584988419));
#1380 = CARTESIAN_POINT('',(-2.435376233808,-2.739337242691));
#1381 = CARTESIAN_POINT('',(-2.481565548912,-3.752615582538));
#1382 = CARTESIAN_POINT('',(-2.503421820246,-4.219349842338));
#1383 = CARTESIAN_POINT('',(-2.525908074114,-4.6853781444));
#1384 = CARTESIAN_POINT('',(-2.549124825907,-5.150550299695));
#1385 = CARTESIAN_POINT('',(-2.573198374227,-5.614654447119));
#1386 = CARTESIAN_POINT('',(-2.606716772172,-6.231570653209));
#1387 = CARTESIAN_POINT('',(-2.615214154761,-6.385631881127));
#1388 = CARTESIAN_POINT('',(-2.623837659418,-6.539522697312));
#1389 = CARTESIAN_POINT('',(-2.632596001645,-6.693227459341));
#1390 = CARTESIAN_POINT('',(-2.641499298184,-6.846727394224));
#1391 = CARTESIAN_POINT('',(-2.650559520045,-7.));
#1392 = ( GEOMETRIC_REPRESENTATION_CONTEXT(2) 
PARAMETRIC_REPRESENTATION_CONTEXT() REPRESENTATION_CONTEXT('2D SPACE',''
  ) );
#1393 = ORIENTED_EDGE('',*,*,#1394,.F.);
#1394 = EDGE_CURVE('',#1170,#1330,#1395,.T.);
#1395 = SURFACE_CURVE('',#1396,(#1401,#1408),.PCURVE_S1.);
#1396 = CIRCLE('',#1397,8.053333333333);
#1397 = AXIS2_PLACEMENT_3D('',#1398,#1399,#1400);
#1398 = CARTESIAN_POINT('',(449.,0.,-2.5));
#1399 = DIRECTION('',(1.,0.,2.22044604925E-16));
#1400 = DIRECTION('',(2.22044604925E-16,0.,-1.));
#1401 = PCURVE('',#989,#1402);
#1402 = DEFINITIONAL_REPRESENTATION('',(#1403),#1407);
#1403 = LINE('',#1404,#1405);
#1404 = CARTESIAN_POINT('',(-0.,-38.));
#1405 = VECTOR('',#1406,1.);
#1406 = DIRECTION('',(-1.,-0.));
#1407 = ( GEOMETRIC_REPRESENTATION_CONTEXT(2) 
PARAMETRIC_REPRESENTATION_CONTEXT() REPRESENTATION_CONTEXT('2D SPACE',''
  ) );
#1408 = PCURVE('',#1209,#1409);
#1409 = DEFINITIONAL_REPRESENTATION('',(#1410),#1414);
#1410 = CIRCLE('',#1411,8.053333333333);
#1411 = AXIS2_PLACEMENT_2D('',#1412,#1413);
#1412 = CARTESIAN_POINT('',(-1.5,0.));
#1413 = DIRECTION('',(1.,0.));
#1414 = ( GEOMETRIC_REPRESENTATION_CONTEXT(2) 
PARAMETRIC_REPRESENTATION_CONTEXT() REPRESENTATION_CONTEXT('2D SPACE',''
  ) );
#1415 = ORIENTED_EDGE('',*,*,#1169,.F.);
#1416 = ORIENTED_EDGE('',*,*,#1141,.T.);
#1417 = ORIENTED_EDGE('',*,*,#1032,.T.);
#1418 = ORIENTED_EDGE('',*,*,#1419,.T.);
#1419 = EDGE_CURVE('',#1004,#970,#1420,.T.);
#1420 = SURFACE_CURVE('',#1421,(#1426,#1433),.PCURVE_S1.);
#1421 = CIRCLE('',#1422,10.946666666667);
#1422 = AXIS2_PLACEMENT_3D('',#1423,#1424,#1425);
#1423 = CARTESIAN_POINT('',(418.,0.,-2.5));
#1424 = DIRECTION('',(1.,0.,2.22044604925E-16));
#1425 = DIRECTION('',(2.22044604925E-16,0.,-1.));
#1426 = PCURVE('',#989,#1427);
#1427 = DEFINITIONAL_REPRESENTATION('',(#1428),#1432);
#1428 = LINE('',#1429,#1430);
#1429 = CARTESIAN_POINT('',(-0.,-7.));
#1430 = VECTOR('',#1431,1.);
#1431 = DIRECTION('',(-1.,-0.));
#1432 = ( GEOMETRIC_REPRESENTATION_CONTEXT(2) 
PARAMETRIC_REPRESENTATION_CONTEXT() REPRESENTATION_CONTEXT('2D SPACE',''
  ) );
#1433 = PCURVE('',#1020,#1434);
#1434 = DEFINITIONAL_REPRESENTATION('',(#1435),#1439);
#1435 = CIRCLE('',#1436,10.946666666667);
#1436 = AXIS2_PLACEMENT_2D('',#1437,#1438);
#1437 = CARTESIAN_POINT('',(1.5,0.));
#1438 = DIRECTION('',(1.,0.));
#1439 = ( GEOMETRIC_REPRESENTATION_CONTEXT(2) 
PARAMETRIC_REPRESENTATION_CONTEXT() REPRESENTATION_CONTEXT('2D SPACE',''
  ) );
#1440 = ORIENTED_EDGE('',*,*,#969,.T.);
#1441 = ADVANCED_FACE('',(#1442),#1020,.T.);
#1442 = FACE_BOUND('',#1443,.T.);
#1443 = EDGE_LOOP('',(#1444,#1445));
#1444 = ORIENTED_EDGE('',*,*,#1419,.F.);
#1445 = ORIENTED_EDGE('',*,*,#1003,.T.);
#1446 = ADVANCED_FACE('',(#1447),#1209,.F.);
#1447 = FACE_BOUND('',#1448,.F.);
#1448 = EDGE_LOOP('',(#1449,#1473,#1495,#1496));
#1449 = ORIENTED_EDGE('',*,*,#1450,.T.);
#1450 = EDGE_CURVE('',#1193,#1451,#1453,.T.);
#1451 = VERTEX_POINT('',#1452);
#1452 = CARTESIAN_POINT('',(449.,-2.204364238465E-15,-13.));
#1453 = SURFACE_CURVE('',#1454,(#1459,#1466),.PCURVE_S1.);
#1454 = CIRCLE('',#1455,9.);
#1455 = AXIS2_PLACEMENT_3D('',#1456,#1457,#1458);
#1456 = CARTESIAN_POINT('',(449.,0.,-4.));
#1457 = DIRECTION('',(1.,-0.,2.22044604925E-16));
#1458 = DIRECTION('',(2.22044604925E-16,0.,-1.));
#1459 = PCURVE('',#1209,#1460);
#1460 = DEFINITIONAL_REPRESENTATION('',(#1461),#1465);
#1461 = CIRCLE('',#1462,9.);
#1462 = AXIS2_PLACEMENT_2D('',#1463,#1464);
#1463 = CARTESIAN_POINT('',(0.,0.));
#1464 = DIRECTION('',(1.,0.));
#1465 = ( GEOMETRIC_REPRESENTATION_CONTEXT(2) 
PARAMETRIC_REPRESENTATION_CONTEXT() REPRESENTATION_CONTEXT('2D SPACE',''
  ) );
#1466 = PCURVE('',#1271,#1467);
#1467 = DEFINITIONAL_REPRESENTATION('',(#1468),#1472);
#1468 = LINE('',#1469,#1470);
#1469 = CARTESIAN_POINT('',(-0.,-0.));
#1470 = VECTOR('',#1471,1.);
#1471 = DIRECTION('',(-1.,-0.));
#1472 = ( GEOMETRIC_REPRESENTATION_CONTEXT(2) 
PARAMETRIC_REPRESENTATION_CONTEXT() REPRESENTATION_CONTEXT('2D SPACE',''
  ) );
#1473 = ORIENTED_EDGE('',*,*,#1474,.T.);
#1474 = EDGE_CURVE('',#1451,#1330,#1475,.T.);
#1475 = SURFACE_CURVE('',#1476,(#1481,#1488),.PCURVE_S1.);
#1476 = CIRCLE('',#1477,9.);
#1477 = AXIS2_PLACEMENT_3D('',#1478,#1479,#1480);
#1478 = CARTESIAN_POINT('',(449.,0.,-4.));
#1479 = DIRECTION('',(1.,-0.,2.22044604925E-16));
#1480 = DIRECTION('',(2.22044604925E-16,0.,-1.));
#1481 = PCURVE('',#1209,#1482);
#1482 = DEFINITIONAL_REPRESENTATION('',(#1483),#1487);
#1483 = CIRCLE('',#1484,9.);
#1484 = AXIS2_PLACEMENT_2D('',#1485,#1486);
#1485 = CARTESIAN_POINT('',(0.,0.));
#1486 = DIRECTION('',(1.,0.));
#1487 = ( GEOMETRIC_REPRESENTATION_CONTEXT(2) 
PARAMETRIC_REPRESENTATION_CONTEXT() REPRESENTATION_CONTEXT('2D SPACE',''
  ) );
#1488 = PCURVE('',#1271,#1489);
#1489 = DEFINITIONAL_REPRESENTATION('',(#1490),#1494);
#1490 = LINE('',#1491,#1492);
#1491 = CARTESIAN_POINT('',(-0.,-0.));
#1492 = VECTOR('',#1493,1.);
#1493 = DIRECTION('',(-1.,-0.));
#1494 = ( GEOMETRIC_REPRESENTATION_CONTEXT(2) 
PARAMETRIC_REPRESENTATION_CONTEXT() REPRESENTATION_CONTEXT('2D SPACE',''
  ) );
#1495 = ORIENTED_EDGE('',*,*,#1394,.F.);
#1496 = ORIENTED_EDGE('',*,*,#1192,.F.);
#1497 = ADVANCED_FACE('',(#1498),#1271,.T.);
#1498 = FACE_BOUND('',#1499,.T.);
#1499 = EDGE_LOOP('',(#1500,#1523,#1550,#1551,#1552,#1553,#1575,#1576));
#1500 = ORIENTED_EDGE('',*,*,#1501,.T.);
#1501 = EDGE_CURVE('',#1451,#1502,#1504,.T.);
#1502 = VERTEX_POINT('',#1503);
#1503 = CARTESIAN_POINT('',(494.,-1.714505518806E-15,-11.));
#1504 = SEAM_CURVE('',#1505,(#1509,#1516),.PCURVE_S1.);
#1505 = LINE('',#1506,#1507);
#1506 = CARTESIAN_POINT('',(449.,-2.204364238465E-15,-13.));
#1507 = VECTOR('',#1508,1.);
#1508 = DIRECTION('',(0.999013806466,1.087501387016E-17,
    4.440061362072E-02));
#1509 = PCURVE('',#1271,#1510);
#1510 = DEFINITIONAL_REPRESENTATION('',(#1511),#1515);
#1511 = LINE('',#1512,#1513);
#1512 = CARTESIAN_POINT('',(-6.28318530718,0.));
#1513 = VECTOR('',#1514,1.);
#1514 = DIRECTION('',(-0.,-1.));
#1515 = ( GEOMETRIC_REPRESENTATION_CONTEXT(2) 
PARAMETRIC_REPRESENTATION_CONTEXT() REPRESENTATION_CONTEXT('2D SPACE',''
  ) );
#1516 = PCURVE('',#1271,#1517);
#1517 = DEFINITIONAL_REPRESENTATION('',(#1518),#1522);
#1518 = LINE('',#1519,#1520);
#1519 = CARTESIAN_POINT('',(0.,-0.));
#1520 = VECTOR('',#1521,1.);
#1521 = DIRECTION('',(-0.,-1.));
#1522 = ( GEOMETRIC_REPRESENTATION_CONTEXT(2) 
PARAMETRIC_REPRESENTATION_CONTEXT() REPRESENTATION_CONTEXT('2D SPACE',''
  ) );
#1523 = ORIENTED_EDGE('',*,*,#1524,.F.);
#1524 = EDGE_CURVE('',#1502,#1502,#1525,.T.);
#1525 = SURFACE_CURVE('',#1526,(#1531,#1538),.PCURVE_S1.);
#1526 = CIRCLE('',#1527,7.);
#1527 = AXIS2_PLACEMENT_3D('',#1528,#1529,#1530);
#1528 = CARTESIAN_POINT('',(494.,0.,-4.));
#1529 = DIRECTION('',(1.,-0.,2.22044604925E-16));
#1530 = DIRECTION('',(2.22044604925E-16,0.,-1.));
#1531 = PCURVE('',#1271,#1532);
#1532 = DEFINITIONAL_REPRESENTATION('',(#1533),#1537);
#1533 = LINE('',#1534,#1535);
#1534 = CARTESIAN_POINT('',(-0.,-45.));
#1535 = VECTOR('',#1536,1.);
#1536 = DIRECTION('',(-1.,-0.));
#1537 = ( GEOMETRIC_REPRESENTATION_CONTEXT(2) 
PARAMETRIC_REPRESENTATION_CONTEXT() REPRESENTATION_CONTEXT('2D SPACE',''
  ) );
#1538 = PCURVE('',#1539,#1544);
#1539 = PLANE('',#1540);
#1540 = AXIS2_PLACEMENT_3D('',#1541,#1542,#1543);
#1541 = CARTESIAN_POINT('',(494.,0.,-4.));
#1542 = DIRECTION('',(1.,0.,2.22044604925E-16));
#1543 = DIRECTION('',(2.22044604925E-16,0.,-1.));
#1544 = DEFINITIONAL_REPRESENTATION('',(#1545),#1549);
#1545 = CIRCLE('',#1546,7.);
#1546 = AXIS2_PLACEMENT_2D('',#1547,#1548);
#1547 = CARTESIAN_POINT('',(0.,0.));
#1548 = DIRECTION('',(1.,0.));
#1549 = ( GEOMETRIC_REPRESENTATION_CONTEXT(2) 
PARAMETRIC_REPRESENTATION_CONTEXT() REPRESENTATION_CONTEXT('2D SPACE',''
  ) );
#1550 = ORIENTED_EDGE('',*,*,#1501,.F.);
#1551 = ORIENTED_EDGE('',*,*,#1474,.T.);
#1552 = ORIENTED_EDGE('',*,*,#1329,.T.);
#1553 = ORIENTED_EDGE('',*,*,#1554,.T.);
#1554 = EDGE_CURVE('',#1301,#1222,#1555,.T.);
#1555 = SURFACE_CURVE('',#1556,(#1561,#1568),.PCURVE_S1.);
#1556 = CIRCLE('',#1557,8.688888888889);
#1557 = AXIS2_PLACEMENT_3D('',#1558,#1559,#1560);
#1558 = CARTESIAN_POINT('',(456.,0.,-4.));
#1559 = DIRECTION('',(1.,0.,2.22044604925E-16));
#1560 = DIRECTION('',(2.22044604925E-16,0.,-1.));
#1561 = PCURVE('',#1271,#1562);
#1562 = DEFINITIONAL_REPRESENTATION('',(#1563),#1567);
#1563 = LINE('',#1564,#1565);
#1564 = CARTESIAN_POINT('',(-0.,-7.));
#1565 = VECTOR('',#1566,1.);
#1566 = DIRECTION('',(-1.,-0.));
#1567 = ( GEOMETRIC_REPRESENTATION_CONTEXT(2) 
PARAMETRIC_REPRESENTATION_CONTEXT() REPRESENTATION_CONTEXT('2D SPACE',''
  ) );
#1568 = PCURVE('',#1317,#1569);
#1569 = DEFINITIONAL_REPRESENTATION('',(#1570),#1574);
#1570 = CIRCLE('',#1571,8.688888888889);
#1571 = AXIS2_PLACEMENT_2D('',#1572,#1573);
#1572 = CARTESIAN_POINT('',(1.5,0.));
#1573 = DIRECTION('',(1.,0.));
#1574 = ( GEOMETRIC_REPRESENTATION_CONTEXT(2) 
PARAMETRIC_REPRESENTATION_CONTEXT() REPRESENTATION_CONTEXT('2D SPACE',''
  ) );
#1575 = ORIENTED_EDGE('',*,*,#1221,.T.);
#1576 = ORIENTED_EDGE('',*,*,#1450,.T.);
#1577 = ADVANCED_FACE('',(#1578),#1317,.T.);
#1578 = FACE_BOUND('',#1579,.T.);
#1579 = EDGE_LOOP('',(#1580,#1581));
#1580 = ORIENTED_EDGE('',*,*,#1554,.F.);
#1581 = ORIENTED_EDGE('',*,*,#1300,.T.);
#1582 = ADVANCED_FACE('',(#1583),#1539,.T.);
#1583 = FACE_BOUND('',#1584,.T.);
#1584 = EDGE_LOOP('',(#1585));
#1585 = ORIENTED_EDGE('',*,*,#1524,.T.);
#1586 = ( GEOMETRIC_REPRESENTATION_CONTEXT(3) 
GLOBAL_UNCERTAINTY_ASSIGNED_CONTEXT((#1590)) 
GLOBAL_UNIT_ASSIGNED_CONTEXT((#1587,#1588,#1589)) REPRESENTATION_CONTEXT
('Context #1','3D Context with UNIT and UNCERTAINTY') );
#1587 = ( LENGTH_UNIT() NAMED_UNIT(*) SI_UNIT(.MILLI.,.METRE.) );
#1588 = ( NAMED_UNIT(*) PLANE_ANGLE_UNIT() SI_UNIT($,.RADIAN.) );
#1589 = ( NAMED_UNIT(*) SI_UNIT($,.STERADIAN.) SOLID_ANGLE_UNIT() );
#1590 = UNCERTAINTY_MEASURE_WITH_UNIT(LENGTH_MEASURE(1.E-07),#1587,
  'distance_accuracy_value','confusion accuracy');
#1591 = PRODUCT_RELATED_PRODUCT_CATEGORY('part',$,(#7));
ENDSEC;
END-ISO-10303-21;
